
<svg version="1.0" id="Layer_1" xmlns="http://www.w3.org/2000/svg" xmlns:xlink="http://www.w3.org/1999/xlink" x="0px" y="0px"
	 viewBox="0 0 49 49" style="enable-background:new 0 0 49 49;" xml:space="preserve">
<style type="text/css">
	.st0{fill:#353434;}
</style>
<path class="st0" d="M16.142,46c-1.059,0-1.96-0.371-2.701-1.112c-0.741-0.741-1.112-1.642-1.112-2.701
	c0-1.059,0.371-1.96,1.112-2.701s1.642-1.112,2.701-1.112s1.96,0.371,2.701,1.112s1.112,1.642,1.112,2.701
	c0,1.059-0.371,1.96-1.112,2.701C18.102,45.629,17.201,46,16.142,46z M37.328,46c-1.059,0-1.96-0.371-2.701-1.112
	c-0.741-0.741-1.112-1.642-1.112-2.701c0-1.059,0.371-1.96,1.112-2.701s1.642-1.112,2.701-1.112c1.059,0,1.96,0.371,2.701,1.112
	s1.112,1.642,1.112,2.701c0,1.059-0.371,1.96-1.112,2.701C39.287,45.629,38.387,46,37.328,46z M13.388,11.044l5.826,12.076h15.254
	l6.62-12.076H13.388z M11.799,7.866h31.196c0.812,0,1.43,0.371,1.854,1.112c0.424,0.741,0.424,1.483,0,2.224l-7.15,12.87
	c-0.388,0.671-0.892,1.209-1.509,1.615c-0.618,0.406-1.298,0.609-2.039,0.609H18.102l-2.966,5.508h26.005v3.178H15.613
	c-1.483,0-2.551-0.494-3.204-1.483c-0.653-0.989-0.644-2.101,0.026-3.337l3.39-6.25L7.774,6.86H3.643V3.682h6.197L11.799,7.866z
	 M19.214,23.12h15.254H19.214z"/>
</svg>
