<?xml version="1.0" encoding="utf-8"?>
<!-- Generator: Adobe Illustrator 27.0.0, SVG Export Plug-In . SVG Version: 6.00 Build 0)  -->
<svg version="1.1" id="Layer_1" xmlns="http://www.w3.org/2000/svg" xmlns:xlink="http://www.w3.org/1999/xlink" x="0px" y="0px"
	 viewBox="0 0 141.7 141.7" style="enable-background:new 0 0 141.7 141.7;" xml:space="preserve">
<style type="text/css">
	.st0{fill:none;stroke:#000000;stroke-width:1.8157;stroke-linejoin:round;stroke-miterlimit:10;}
	.st1{fill:none;stroke:#000000;stroke-width:1.8157;stroke-linecap:round;stroke-linejoin:round;stroke-miterlimit:10;}
	.st2{fill:none;stroke:#000000;stroke-width:1.8157;stroke-miterlimit:10;}
</style>
<g>
	<polyline class="st0" points="96.1,29.8 114.6,29.9 114.2,125.2 46,125 46.1,87.5 	"/>
	<polyline class="st0" points="46.1,71.9 46.3,29.6 64.7,29.7 	"/>
	<polyline class="st0" points="96.6,33.1 111.3,33.1 111,122 49.3,121.8 49.4,93.8 	"/>
	<polyline class="st0" points="49.4,78.4 49.6,32.9 64.3,32.9 	"/>
	<g>
		<polygon class="st0" points="58,95.3 51.5,98 29.8,55.4 36.2,52.8 		"/>
		<polygon class="st0" points="36.2,52.8 29.8,55.4 27.8,51.4 34.2,48.8 		"/>
		<path class="st0" d="M34.2,48.8l-6.5,2.7l-0.6-1.2c-0.8-1.6,0-3.4,1.7-4.2l0.1-0.1c1.7-0.7,3.8,0,4.6,1.5L34.2,48.8z"/>
		<polygon class="st1" points="58.4,103.8 58.2,99.6 58,95.3 54.7,96.7 51.5,98 54.9,100.9 		"/>
	</g>
	<line class="st1" x1="70.8" y1="51.4" x2="101.7" y2="51.6"/>
	<path class="st1" d="M60.3,50.7c0,0,1.8,2.6,2.1,3.5c0,0,3-5,3.3-5.7"/>
	<line class="st1" x1="70.7" y1="61.8" x2="101.6" y2="61.9"/>
	<path class="st1" d="M60.3,61.1c0,0,1.8,2.6,2.1,3.5c0,0,3-5,3.3-5.7"/>
	<line class="st1" x1="70.7" y1="71.9" x2="101.6" y2="72"/>
	<path class="st1" d="M60.3,71.2c0,0,1.8,2.6,2.1,3.5c0,0,3-5,3.3-5.7"/>
	<line class="st1" x1="70.7" y1="81.3" x2="101.6" y2="81.4"/>
	<path class="st1" d="M60.3,80.6c0,0,1.8,2.6,2.1,3.5c0,0,3-5,3.3-5.7"/>
	<path class="st2" d="M91.6,27.1h-7.9v-0.4c0-1.6-1.4-2.9-3.2-2.9c-1.8,0-3.2,1.3-3.2,2.9v0.4h-7.9c-2.6,0-4.8,1.9-4.8,4.3v4.3
		l31.8,0.1v-4.3C96.4,29,94.2,27.1,91.6,27.1z"/>
	<ellipse class="st2" cx="80.5" cy="26.8" rx="0.2" ry="0.2"/>
</g>
</svg>
