<svg version="1.0" id="Layer_1" xmlns="http://www.w3.org/2000/svg" xmlns:xlink="http://www.w3.org/1999/xlink" x="0px" y="0px"
	 viewBox="0 0 150 43" style="enable-background:new 0 0 150 43;" xml:space="preserve">
<style type="text/css">
	.st0{fill:#7D287E;}
</style>
<g>
	<path class="st0" d="M64.661,16.754c0.599,0,1.06,0.212,1.381,0.636c0.26,0.335,0.389,0.741,0.389,1.218
		c0,0.855-0.29,1.831-0.871,2.925c-0.51,0.944-1.144,1.792-1.903,2.542c-0.501,0.485-0.894,0.728-1.18,0.728
		c-0.188,0-0.362-0.093-0.522-0.278c-0.116-0.132-0.175-0.282-0.175-0.449c0-0.31,0.272-0.662,0.817-1.06
		c0.769-0.564,1.381-1.183,1.837-1.853c0.67-0.971,1.006-1.792,1.006-2.462c0-0.273-0.061-0.477-0.182-0.609
		c-0.12-0.132-0.302-0.198-0.543-0.198c-0.491,0-1.188,0.353-2.091,1.059c-1.028,0.794-2.113,1.875-3.258,3.243
		c-1.456,1.738-2.564,3.45-3.324,5.136c-0.786,1.747-1.18,3.238-1.18,4.474c0,0.592,0.175,1.095,0.522,1.509
		c0.385,0.468,0.854,0.702,1.408,0.702c0.965,0,2.181-0.741,3.646-2.224c0.438-0.45,0.97-1.104,1.596-1.959
		c0.411-0.548,0.675-0.936,0.791-1.165c0.134-0.256,0.29-0.384,0.469-0.384c0.196,0,0.295,0.093,0.295,0.277
		c0,0.397-0.5,1.289-1.501,2.674c-0.831,1.156-1.747,2.101-2.748,2.833c-1.126,0.82-2.189,1.231-3.19,1.231
		c-1.046,0-1.854-0.464-2.427-1.391c-0.366-0.591-0.549-1.266-0.549-2.024c0-1.906,0.911-4.311,2.734-7.214
		c1.555-2.471,3.194-4.461,4.92-5.97C62.32,17.403,63.598,16.754,64.661,16.754z"/>
	<path class="st0" d="M67.316,28.363c0.661-0.68,1.322-1.248,1.984-1.707c0.849-0.583,1.456-0.874,1.823-0.874
		c0.151,0,0.299,0.062,0.442,0.186c0.16,0.141,0.241,0.305,0.241,0.489c0,0.238-0.192,0.609-0.577,1.112
		c-0.741,0.971-1.305,1.853-1.688,2.647c-0.34,0.688-0.51,1.156-0.51,1.402c0,0.238,0.116,0.357,0.349,0.357
		c0.482,0,1.296-0.847,2.439-2.541c0.232-0.344,0.442-0.517,0.631-0.517c0.188,0,0.281,0.106,0.281,0.318
		c0,0.344-0.34,1.001-1.019,1.972c-0.59,0.848-1.207,1.496-1.851,1.946c-0.455,0.309-0.866,0.463-1.233,0.463
		c-0.384,0-0.661-0.163-0.831-0.489c-0.106-0.203-0.16-0.429-0.16-0.676c0-0.785,0.281-1.681,0.844-2.687
		c0.135-0.238,0.536-0.918,1.207-2.038c-1.823,0.908-3.365,2.872-4.625,5.89c-0.116,0.345-0.295,0.517-0.536,0.517
		c-0.17,0-0.309-0.058-0.415-0.172c-0.107-0.124-0.161-0.273-0.161-0.45c0-0.291,0.286-1.116,0.857-2.476
		c1.063-2.523,2.056-4.659,2.977-6.406c0.92-1.765,1.943-3.596,3.069-5.493c0.269-0.459,0.478-0.768,0.63-0.927
		s0.313-0.238,0.482-0.238c0.161,0,0.3,0.084,0.416,0.252c0.089,0.123,0.134,0.265,0.134,0.423c0,0.247-0.143,0.578-0.429,0.993
		c-0.965,1.474-1.926,3.093-2.882,4.857C68.178,26.386,67.548,27.674,67.316,28.363z"/>
	<path class="st0" d="M76.15,25.848c0.151,0,0.277,0.058,0.375,0.172c0.071,0.098,0.107,0.194,0.107,0.291
		c0,0.159-0.13,0.424-0.389,0.794c-0.93,1.421-1.591,2.591-1.983,3.508c-0.421,0.944-0.791,1.915-1.113,2.912
		c-0.143,0.441-0.366,0.662-0.67,0.662c-0.179,0-0.322-0.07-0.429-0.212c-0.099-0.114-0.147-0.238-0.147-0.37
		c0-0.266,0.286-1.147,0.857-2.647c0.447-1.183,1.171-2.488,2.172-3.918c0.321-0.468,0.563-0.781,0.724-0.94
		C75.815,25.932,75.98,25.848,76.15,25.848z M78.696,20.937c0.402,0,0.604,0.203,0.604,0.609c0,0.37-0.197,0.78-0.59,1.23
		c-0.376,0.433-0.737,0.648-1.086,0.648c-0.17,0-0.309-0.062-0.416-0.185c-0.106-0.115-0.16-0.256-0.16-0.424
		c0-0.424,0.236-0.874,0.71-1.351C78.107,21.114,78.419,20.937,78.696,20.937z"/>
	<path class="st0" d="M81.432,25.239c0.732,0,1.099,0.441,1.099,1.324c0,1.174-0.55,2.66-1.648,4.461
		c-1.198,1.95-2.355,2.925-3.472,2.925c-0.519,0-0.898-0.238-1.14-0.715c-0.125-0.238-0.188-0.524-0.188-0.86
		c0-1.13,0.393-2.356,1.18-3.68c0.732-1.227,1.595-2.18,2.587-2.859C80.431,25.438,80.957,25.239,81.432,25.239z M80.037,30.242
		c-0.224-0.177-0.335-0.313-0.335-0.41c0-0.071,0.143-0.265,0.429-0.583c0.805-0.891,1.207-1.61,1.207-2.157
		c0-0.07-0.022-0.142-0.067-0.212c-0.071-0.132-0.184-0.198-0.335-0.198c-0.286,0-0.706,0.273-1.261,0.82
		c-0.715,0.706-1.26,1.435-1.635,2.185c-0.438,0.855-0.657,1.566-0.657,2.131c0,0.15,0.04,0.282,0.121,0.396
		c0.116,0.159,0.263,0.238,0.442,0.238c0.429,0,0.889-0.317,1.381-0.953c0.214-0.265,0.389-0.538,0.522-0.82
		S80.046,30.251,80.037,30.242z"/>
	<path class="st0" d="M87.53,25.252c-0.581,0.892-1.117,1.889-1.608,2.991c-0.706,1.571-1.06,2.745-1.06,3.521
		c0,0.221,0.048,0.388,0.142,0.503c0.094,0.114,0.234,0.172,0.422,0.172c0.446,0,0.987-0.415,1.622-1.244
		c0.402-0.512,0.76-1.023,1.072-1.536c0.17-0.291,0.353-0.437,0.55-0.437c0.116,0,0.214,0.04,0.295,0.119
		c0.071,0.079,0.107,0.159,0.107,0.238c0,0.327-0.434,1.055-1.301,2.185c-1.037,1.358-1.983,2.038-2.842,2.038
		c-0.456,0-0.836-0.207-1.14-0.622c-0.188-0.265-0.281-0.64-0.281-1.125c0-1.067,0.313-2.312,0.938-3.733
		c0.151-0.353,0.571-1.204,1.26-2.554c-0.241,0.062-0.425,0.092-0.55,0.092c-0.188,0-0.353-0.044-0.495-0.132
		c-0.197-0.124-0.295-0.278-0.295-0.464c0-0.22,0.129-0.396,0.389-0.529c0.071-0.035,0.401-0.093,0.991-0.172
		c0.215-0.035,0.527-0.119,0.938-0.251c0.313-0.557,0.822-1.311,1.528-2.264c0.394-0.529,0.666-0.874,0.817-1.032
		c0.215-0.221,0.402-0.331,0.563-0.331c0.116,0,0.232,0.062,0.349,0.185c0.107,0.115,0.161,0.23,0.161,0.345
		c0,0.229-0.251,0.684-0.751,1.363c-0.331,0.441-0.576,0.799-0.737,1.072c0.992-0.265,1.702-0.397,2.131-0.397
		c0.492,0,0.737,0.203,0.737,0.609c0,0.203-0.085,0.353-0.254,0.45c-0.09,0.053-0.322,0.097-0.697,0.132
		c-0.152-0.009-0.827,0.159-2.024,0.503C88.178,25.045,87.853,25.146,87.53,25.252z"/>
	<path class="st0" d="M105.667,26.47c-2.028,0.397-3.727,0.865-5.094,1.403c-0.822,1.19-1.725,2.62-2.708,4.288l-0.71,1.231
		c-0.125,0.221-0.317,0.538-0.576,0.953c-0.286,0.484-0.586,0.728-0.898,0.728c-0.17,0-0.313-0.066-0.429-0.198
		c-0.116-0.115-0.175-0.243-0.175-0.384c0-0.247,0.335-0.949,1.006-2.104c0.366-0.627,0.92-1.514,1.662-2.661
		c0.286-0.441,0.514-0.803,0.684-1.085c-0.536,0.15-1.027,0.322-1.475,0.516c-0.215,0.098-0.394,0.146-0.536,0.146
		c-0.179,0-0.317-0.079-0.416-0.238c-0.071-0.097-0.106-0.211-0.106-0.344c0-0.3,0.106-0.512,0.321-0.636
		c0.349-0.211,0.974-0.454,1.877-0.728c0.67-0.212,1.201-0.406,1.595-0.582c0.188-0.229,0.68-0.905,1.475-2.025
		c0.34-0.485,1.305-1.633,2.896-3.441c1.144-1.324,2.323-2.555,3.539-3.693c0.706-0.67,1.247-1.006,1.622-1.006
		c0.232,0,0.434,0.093,0.604,0.278c0.143,0.167,0.214,0.353,0.214,0.556c0,0.247-0.125,0.68-0.375,1.297
		c-0.429,1.086-0.84,2.246-1.233,3.481c-0.34,1.095-0.567,1.933-0.684,2.515c0.161,0,0.269-0.004,0.321-0.013
		c0.26-0.009,0.474-0.014,0.644-0.014c0.519,0,0.777,0.194,0.777,0.583c0,0.167-0.056,0.333-0.167,0.496
		c-0.112,0.163-0.239,0.263-0.382,0.298c-0.054,0.018-0.201,0.026-0.442,0.026c-0.51,0-0.89,0.031-1.14,0.093
		c-0.215,0.627-0.555,2.229-1.019,4.805c-0.241,1.712-0.357,2.762-0.349,3.15c0,0.635-0.192,0.953-0.576,0.953
		c-0.305,0-0.541-0.154-0.711-0.464c-0.125-0.212-0.188-0.498-0.188-0.86c0-1.218,0.219-2.858,0.656-4.924
		C105.395,27.825,105.561,27.026,105.667,26.47z M106.043,25.04c0.08-0.256,0.285-0.939,0.616-2.052
		c0.081-0.291,0.286-0.869,0.617-1.733c0.33-0.892,0.594-1.606,0.79-2.145c-0.581,0.379-1.17,0.882-1.769,1.509
		c-2.109,2.241-3.598,4.072-4.464,5.493c0.33-0.079,1.041-0.278,2.131-0.596C104.277,25.429,104.971,25.27,106.043,25.04z"/>
	<path class="st0" d="M111.914,25.848c0.151,0,0.277,0.058,0.375,0.172c0.071,0.098,0.107,0.194,0.107,0.291
		c0,0.159-0.13,0.424-0.389,0.794c-0.93,1.421-1.591,2.591-1.983,3.508c-0.421,0.944-0.791,1.915-1.113,2.912
		c-0.143,0.441-0.366,0.662-0.67,0.662c-0.179,0-0.322-0.07-0.429-0.212c-0.099-0.114-0.147-0.238-0.147-0.37
		c0-0.266,0.286-1.147,0.857-2.647c0.447-1.183,1.171-2.488,2.172-3.918c0.321-0.468,0.563-0.781,0.724-0.94
		C111.579,25.932,111.744,25.848,111.914,25.848z M114.461,20.937c0.402,0,0.604,0.203,0.604,0.609c0,0.37-0.196,0.78-0.59,1.23
		c-0.375,0.433-0.737,0.648-1.086,0.648c-0.17,0-0.308-0.062-0.415-0.185c-0.107-0.115-0.161-0.256-0.161-0.424
		c0-0.424,0.237-0.874,0.71-1.351C113.871,21.114,114.185,20.937,114.461,20.937z"/>
	<path class="st0" d="M114.327,29.368c0.751-0.776,1.412-1.385,1.983-1.826c0.867-0.662,1.448-0.993,1.743-0.993
		c0.143,0,0.268,0.053,0.375,0.159c0.099,0.097,0.147,0.203,0.147,0.317c0,0.168-0.156,0.441-0.469,0.821
		c-0.482,0.6-0.818,1.111-1.006,1.535c2.092-2.074,3.521-3.11,4.29-3.11c0.161,0,0.299,0.048,0.415,0.146
		c0.125,0.105,0.188,0.238,0.188,0.396c0,0.247-0.192,0.565-0.577,0.953c-1.688,1.721-2.533,3.133-2.533,4.236
		c0,0.449,0.08,0.771,0.241,0.966l0.349,0.437c0.071,0.08,0.107,0.182,0.107,0.305c0,0.142-0.059,0.273-0.175,0.397
		c-0.134,0.141-0.286,0.211-0.455,0.211c-0.295,0-0.568-0.185-0.818-0.556c-0.304-0.441-0.455-0.962-0.455-1.562
		c0-0.803,0.231-1.615,0.696-2.436c0.161-0.291,0.43-0.68,0.805-1.165c-0.76,0.564-1.533,1.342-2.319,2.33
		c-0.536,0.67-1.019,1.421-1.447,2.25c-0.206,0.396-0.447,0.596-0.725,0.596c-0.304,0-0.455-0.168-0.455-0.503
		c0-0.362,0.25-1.107,0.75-2.237c0.286-0.644,0.64-1.323,1.06-2.038c-1.528,1.164-2.677,2.744-3.445,4.738
		c-0.188,0.441-0.438,0.662-0.751,0.662c-0.143,0-0.259-0.053-0.349-0.159c-0.098-0.105-0.147-0.233-0.147-0.384
		c0-0.521,0.295-1.46,0.885-2.819c0.617-1.438,1.314-2.731,2.092-3.878c0.536-0.803,0.951-1.205,1.246-1.205
		c0.269,0,0.402,0.142,0.402,0.424c0,0.124-0.165,0.433-0.496,0.927C114.899,28.231,114.515,28.918,114.327,29.368z"/>
	<path class="st0" d="M125.707,31.592c-0.294,0.513-0.585,0.944-0.871,1.298c-0.563,0.688-1.121,1.032-1.676,1.032
		c-0.482,0-0.857-0.226-1.126-0.675c-0.169-0.292-0.254-0.636-0.254-1.033c0-0.979,0.313-2.06,0.938-3.242
		c0.697-1.315,1.537-2.325,2.521-3.031c0.644-0.459,1.265-0.688,1.863-0.688c0.375,0,0.688,0.114,0.938,0.344
		c0.215,0.203,0.321,0.433,0.321,0.688c0,0.194-0.075,0.464-0.228,0.808c0.134,0.186,0.201,0.349,0.201,0.489
		c0,0.186-0.125,0.49-0.375,0.914c-0.26,0.433-0.519,1.006-0.778,1.721c-0.276,0.759-0.415,1.367-0.415,1.826
		c0,0.371,0.111,0.675,0.335,0.913c0.063,0.063,0.246,0.164,0.55,0.305c0.224,0.106,0.335,0.291,0.335,0.556
		c0,0.168-0.063,0.305-0.188,0.411c-0.134,0.114-0.291,0.172-0.47,0.172c-0.482,0-0.897-0.212-1.246-0.636
		c-0.286-0.344-0.429-0.776-0.429-1.297C125.654,32.289,125.672,31.998,125.707,31.592z M127.383,27.238
		c-0.106-0.194-0.224-0.338-0.349-0.43c-0.125-0.093-0.259-0.14-0.401-0.14c-0.68,0-1.417,0.587-2.212,1.761
		c-0.876,1.297-1.313,2.396-1.313,3.296c0,0.221,0.042,0.389,0.127,0.503s0.212,0.172,0.382,0.172c0.429,0,0.93-0.45,1.502-1.35
		c0.321-0.494,0.719-1.223,1.192-2.185c0.313-0.626,0.541-1.041,0.684-1.244C127.066,27.516,127.195,27.388,127.383,27.238z"/>
	<path class="st0" d="M132.719,26.827c0.76-0.636,1.443-0.953,2.052-0.953c0.375,0,0.684,0.154,0.925,0.463
		c0.223,0.274,0.335,0.592,0.335,0.953c0,0.688-0.228,1.522-0.684,2.502c-0.51,1.085-1.247,2.096-2.212,3.031
		c-0.796,0.776-1.555,1.165-2.279,1.165c-0.268,0-0.512-0.049-0.73-0.146c-0.219-0.098-0.413-0.243-0.583-0.438
		c-0.071,0.124-0.116,0.203-0.134,0.238c-0.152,0.327-0.257,0.525-0.315,0.596c-0.058,0.071-0.149,0.106-0.274,0.106
		c-0.161,0-0.313-0.093-0.456-0.278c-0.098-0.123-0.147-0.256-0.147-0.397c0-0.247,0.515-1.495,1.542-3.745
		c1.438-3.142,3.105-6.266,5-9.372c0.769-1.271,1.237-2.017,1.407-2.236c0.188-0.266,0.362-0.397,0.523-0.397
		c0.196,0,0.37,0.097,0.522,0.291c0.098,0.124,0.147,0.27,0.147,0.437c0,0.186-0.085,0.42-0.255,0.702
		c-0.036,0.062-0.317,0.516-0.845,1.363C134.641,23.183,133.461,25.221,132.719,26.827z M130.46,32.559
		c0.139,0.088,0.284,0.132,0.437,0.132c0.777,0,1.6-0.666,2.466-1.998c0.402-0.601,0.72-1.196,0.952-1.787
		c0.205-0.529,0.309-0.922,0.309-1.178c0-0.177-0.041-0.307-0.121-0.391s-0.206-0.126-0.375-0.126c-0.411,0-0.907,0.278-1.488,0.834
		c-0.581,0.547-1.152,1.337-1.716,2.369c-0.268,0.494-0.501,0.958-0.697,1.39l-0.174,0.357
		C130.186,32.338,130.321,32.471,130.46,32.559z"/>
	<path class="st0" d="M138.711,29.382c-0.269,0.688-0.469,1.244-0.604,1.668c-0.134,0.423-0.201,0.719-0.201,0.887
		c0,0.221,0.107,0.331,0.322,0.331c0.321,0,0.737-0.3,1.246-0.9c0.242-0.291,0.599-0.816,1.073-1.575
		c0.188-0.3,0.384-0.45,0.59-0.45c0.231,0,0.348,0.11,0.348,0.331c0,0.38-0.442,1.147-1.326,2.303
		c-0.921,1.209-1.774,1.813-2.561,1.813c-0.34,0-0.617-0.141-0.831-0.423c-0.152-0.203-0.229-0.45-0.229-0.741
		c0-0.494,0.152-1.179,0.456-2.052c0.304-0.874,0.755-1.938,1.354-3.19c1.537-3.186,3.105-5.811,4.705-7.876
		c1.278-1.658,2.337-2.488,3.178-2.488c0.268,0,0.486,0.102,0.656,0.305c0.179,0.203,0.269,0.437,0.269,0.701
		c0,1.236-1.117,3.292-3.352,6.169c-1.001,1.279-2.198,2.559-3.593,3.838C139.846,28.367,139.346,28.818,138.711,29.382z
		 M139.663,27.278c1.858-1.571,3.521-3.557,4.986-5.957c0.76-1.244,1.14-2.069,1.14-2.475c0-0.194-0.085-0.292-0.255-0.292
		c-0.491,0-1.386,0.967-2.681,2.899C141.78,23.041,140.717,24.983,139.663,27.278z"/>
	<path class="st0" d="M143.457,31.235v0.238c0,0.194,0.049,0.362,0.147,0.503c0.223,0.327,0.59,0.49,1.099,0.49
		c1.117,0,2.408-0.848,3.874-2.541c0.259-0.292,0.479-0.438,0.657-0.438c0.098,0,0.188,0.049,0.268,0.146
		c0.054,0.071,0.081,0.138,0.081,0.199c0,0.344-0.43,0.926-1.287,1.747c-0.67,0.644-1.386,1.169-2.145,1.575
		c-0.76,0.405-1.466,0.608-2.118,0.608c-0.671,0-1.197-0.229-1.582-0.688c-0.259-0.317-0.389-0.75-0.389-1.297
		c0-1.491,0.71-2.951,2.132-4.381c1.152-1.165,2.157-1.747,3.016-1.747c0.232,0,0.442,0.07,0.63,0.211
		c0.232,0.186,0.349,0.429,0.349,0.729c0,0.468-0.219,1.041-0.657,1.721C146.629,29.722,145.271,30.697,143.457,31.235z
		 M143.752,30.202c0.625-0.212,1.116-0.45,1.474-0.715c0.626-0.477,1.122-1.015,1.488-1.614c0.134-0.212,0.201-0.401,0.201-0.569
		c0-0.177-0.085-0.265-0.255-0.265c-0.232,0-0.563,0.172-0.992,0.516C144.9,28.164,144.261,29.046,143.752,30.202z"/>
</g>
<g>
	<path class="st0" d="M31.631,38.521c-4.169,0-7.64-1.28-8.994-1.858c-0.417-0.179-0.611-0.662-0.433-1.079
		c0.178-0.417,0.662-0.609,1.079-0.433c2.014,0.861,9.097,3.405,15.692,0.025c3.822-1.959,7.514-5.995,8.405-9.187
		c0.198-0.71,0.341-1.706-0.104-2.427c-1.316-2.136-7.551-1.432-11.169-0.488l-1.211,0.316l0.191-1.237
		c0.382-2.474,0.573-7.234-2.437-11.311c-4.296-5.82-13.319-7.582-20.54-4.01C4.685,10.504,1.94,19.025,3.067,25.545
		c0.155,0.896,1.644,8.771,6.229,9.552c3.445,0.582,8.363-2.929,10.286-9.638c0.125-0.436,0.578-0.688,1.017-0.564
		c0.436,0.125,0.688,0.58,0.564,1.017c-2.202,7.683-7.9,11.531-12.142,10.805c-5.581-0.949-7.288-9.239-7.573-10.891
		C0.217,18.704,3.234,9.387,11.382,5.358c7.914-3.914,17.837-1.934,22.591,4.507c2.923,3.96,3.152,8.447,2.886,11.343
		c2.883-0.619,9.835-1.725,11.818,1.49c0.598,0.971,0.698,2.261,0.287,3.731c-1.017,3.641-4.988,8.029-9.239,10.207
		C36.983,38.044,34.177,38.521,31.631,38.521z"/>
	<path class="st0" d="M48.159,25.356c0,1.789-0.576,1.607-1.552,1.607s-1.983,0.182-1.983-1.607s0.791-3.239,1.768-3.239
		S48.159,23.567,48.159,25.356z"/>
</g>
</svg>
