<?xml version="1.0" encoding="utf-8"?>
<!-- Generator: Adobe Illustrator 24.1.1, SVG Export Plug-In . SVG Version: 6.00 Build 0)  -->
<svg version="1.1" id="Layer_1" xmlns="http://www.w3.org/2000/svg" xmlns:xlink="http://www.w3.org/1999/xlink" x="0px" y="0px"
	 viewBox="0 0 141.7 141.7" style="enable-background:new 0 0 141.7 141.7;" xml:space="preserve">
<style type="text/css">
	.st0{fill:none;stroke:#000000;stroke-width:1.7579;stroke-linecap:round;stroke-linejoin:round;stroke-miterlimit:10;}
	.st1{fill:#FFFFFF;stroke:#000000;stroke-miterlimit:10;}
</style>
<polygon class="st0" points="23.9,37.3 23.9,108.5 59.1,93.3 89.5,107.3 126,94.9 126,35.8 94.5,42.9 60,28.4 "/>
<line class="st0" x1="60" y1="28.4" x2="59.1" y2="93.3"/>
<line class="st0" x1="94.5" y1="42.9" x2="89.6" y2="106.5"/>
<path class="st1" d="M54.6,33.7c0,6.3-11.5,18.5-11.5,18.5S31.7,40.1,31.7,33.7s5.1-11.5,11.5-11.5S54.6,27.4,54.6,33.7z"/>
<circle class="st1" cx="43.1" cy="33.7" r="4.6"/>
<path class="st1" d="M109.7,62.7c0,6.3-11.5,18.5-11.5,18.5S86.8,69,86.8,62.7s5.1-11.5,11.5-11.5S109.7,56.4,109.7,62.7z"/>
<circle class="st1" cx="98.2" cy="62.7" r="4.6"/>
</svg>
