<?xml version="1.0" encoding="utf-8"?>
<!-- Generator: Adobe Illustrator 24.1.1, SVG Export Plug-In . SVG Version: 6.00 Build 0)  -->
<svg version="1.0" id="Layer_1" xmlns="http://www.w3.org/2000/svg" xmlns:xlink="http://www.w3.org/1999/xlink" x="0px" y="0px"
	 viewBox="0 0 49 49" style="enable-background:new 0 0 49 49;" xml:space="preserve">
<style type="text/css">
	.st0{fill:#FFFFFF;}
	.st1{fill:#FFFFFF;stroke:#000000;stroke-miterlimit:10;}
	.st2{font-family:'HeadlineR-HM';}
	.st3{font-size:7.9923px;}
	.st4{fill:none;stroke:#000000;stroke-linecap:round;stroke-miterlimit:10;}
</style>
<g>
	<g>
		<rect x="8" y="14.5" class="st0" width="37" height="14"/>
		<path d="M44.5,15v13h-36V15H44.5 M45.5,14h-38v15h38V14L45.5,14z"/>
	</g>
	<g>
		<rect x="6" y="17.5" class="st0" width="37" height="14"/>
		<path d="M42.5,18v13h-36V18H42.5 M43.5,17h-38v15h38V17L43.5,17z"/>
	</g>
	<g>
		<rect x="4" y="20.5" class="st0" width="37" height="14"/>
		<path d="M40.5,21v13h-36V21H40.5 M41.5,20h-38v15h38V20L41.5,20z"/>
	</g>
</g>
<circle class="st1" cx="22.5" cy="27.5" r="5"/>
<text transform="matrix(1 0 0 1 18.6411 30.5322)" class="st2 st3">￦</text>
<line class="st4" x1="15" y1="28" x2="7.5" y2="28"/>
<line class="st4" x1="30" y1="28" x2="37.5" y2="28"/>
<line class="st4" x1="15" y1="26" x2="7.5" y2="26"/>
<line class="st4" x1="30" y1="26" x2="37.5" y2="26"/>
<line class="st4" x1="15" y1="30" x2="7.5" y2="30"/>
<line class="st4" x1="30" y1="30" x2="37.5" y2="30"/>
</svg>
