<svg version="1.1" id="Layer_1" xmlns="http://www.w3.org/2000/svg" xmlns:xlink="http://www.w3.org/1999/xlink" x="0px" y="0px"
	 viewBox="0 0 48 48" style="enable-background:new 0 0 48 48;" xml:space="preserve">
<style type="text/css">
	.st0{fill:rgba(0, 0, 0, 0);}
	.st1{fill:none;stroke:#000000;stroke-width:3;stroke-miterlimit:10;}
</style>
<a xlink:href="/mypage/mypage.php" target="_parent">
<g id="bg">
	<rect x="-0.5" y="-0.5" class="st0" width="49" height="49"/>
</g>
<circle class="st1" cx="24" cy="16.5" r="8.6"/>
<g>
	<path class="st1" d="M24,30c6.8,0,12.6,4.2,15,10.2c4.4-4,7.1-9.8,7.1-16.2c0-12.2-9.9-22.1-22.1-22.1S1.9,11.8,1.9,24
		c0,6.4,2.7,12.2,7.1,16.2C11.4,34.2,17.2,30,24,30z"/>
	<path class="st1" d="M39,40.2c-2.3-6-8.2-10.2-15-10.2S11.4,34.2,9,40.2c3.9,3.6,9.2,5.9,15,5.9S35,43.9,39,40.2z"/>
</g>
</a>
</svg>
