<svg version="1.0" id="Layer_1" xmlns="http://www.w3.org/2000/svg" xmlns:xlink="http://www.w3.org/1999/xlink" x="0px" y="0px"
	 viewBox="0 0 67.093 34.091" style="enable-background:new 0 0 67.093 34.091;" xml:space="preserve">
<style type="text/css">
	.st0{fill:#DF1B47;}
</style>
<g>
	<path class="st0" d="M18.402,20.279h2.261l0.36-0.817c-0.191,0.092-0.398,0.164-0.622,0.217c-0.222,0.053-0.622,0.097-1.199,0.132
		V18.31c0.146,0,0.297,0.012,0.451,0.036c0.156,0.022,0.338,0.076,0.547,0.162l0.402-0.666h-1.4v-1.381
		c0.064-0.006,0.136-0.008,0.214-0.008c0.202,0,0.389,0.025,0.561,0.074c0.172,0.048,0.322,0.113,0.448,0.195l0.33-0.737h-2.355
		c0.095,0.435,0.143,0.887,0.143,1.356v1.444C18.545,19.475,18.497,19.973,18.402,20.279z"/>
	<path class="st0" d="M20.415,14.937h-0.809c-0.083,0.24-0.208,0.486-0.377,0.737h0.501C19.91,15.443,20.138,15.198,20.415,14.937z"
		/>
	<path class="st0" d="M21.273,19.448c0,0.363,0.06,0.603,0.179,0.721c0.119,0.116,0.291,0.173,0.517,0.173
		c0.165,0,0.357-0.031,0.575-0.093l0.223-0.572c-0.165,0.092-0.331,0.138-0.498,0.138c-0.137,0-0.239-0.04-0.305-0.118
		c-0.064-0.081-0.096-0.279-0.096-0.594v-1.386h0.696v-0.421h-0.696V16.64l-0.993,1.075h0.399v1.395V19.448z"/>
	<path class="st0" d="M24.949,18.609c0-0.466-0.1-0.811-0.3-1.037c-0.198-0.227-0.447-0.341-0.745-0.341
		c-0.359,0-0.657,0.147-0.891,0.44c-0.235,0.292-0.352,0.671-0.352,1.139c0,0.491,0.134,0.87,0.402,1.136
		c0.27,0.264,0.611,0.396,1.023,0.396c0.182,0,0.37-0.03,0.567-0.091l0.223-0.564c-0.255,0.121-0.48,0.181-0.677,0.181
		c-0.266,0-0.479-0.091-0.638-0.272c-0.16-0.183-0.255-0.427-0.286-0.732h1.667C24.946,18.792,24.949,18.707,24.949,18.609z
		 M23.293,18.469c0-0.224,0.054-0.413,0.162-0.567c0.108-0.154,0.249-0.231,0.423-0.231c0.171,0,0.308,0.07,0.413,0.209
		c0.105,0.139,0.157,0.335,0.157,0.589H23.293z"/>
	<path class="st0" d="M27.777,17.295h-0.681l0.002-0.008c-0.081-0.037-0.172-0.055-0.275-0.055c-0.134,0-0.269,0.027-0.404,0.083
		l-0.465,0.517v-0.536h-0.715c0.081,0.277,0.121,0.631,0.121,1.062v1.185c0,0.231-0.04,0.477-0.121,0.737h0.836
		c-0.081-0.205-0.121-0.505-0.121-0.9v-1.392c0.259-0.148,0.459-0.223,0.602-0.223c0.139,0,0.28,0.057,0.421,0.17l0.103-0.552
		c0.066,0.273,0.104,0.568,0.104,0.894v1.144c0,0.343-0.04,0.629-0.121,0.858h0.836c-0.081-0.286-0.121-0.6-0.121-0.941v-1.337
		c0.242-0.158,0.445-0.237,0.608-0.237c0.148,0,0.264,0.048,0.346,0.143c0.085,0.095,0.127,0.267,0.127,0.514v1.04
		c0,0.354-0.04,0.626-0.121,0.817h0.836c-0.081-0.224-0.121-0.551-0.121-0.982v-1.009c0-0.387-0.071-0.659-0.214-0.817
		c-0.143-0.16-0.344-0.239-0.602-0.239c-0.13,0-0.262,0.026-0.396,0.077l-0.462,0.536V17.295z"/>
	<path class="st0" d="M31.198,20.342c0.182,0,0.37-0.03,0.567-0.091l0.223-0.564c-0.255,0.121-0.48,0.181-0.677,0.181
		c-0.266,0-0.479-0.091-0.638-0.272c-0.16-0.183-0.255-0.427-0.286-0.732h1.667c0.006-0.073,0.008-0.159,0.008-0.256
		c0-0.466-0.1-0.811-0.3-1.037c-0.198-0.227-0.447-0.341-0.745-0.341c-0.359,0-0.657,0.147-0.891,0.44
		c-0.235,0.292-0.352,0.671-0.352,1.139c0,0.491,0.134,0.87,0.402,1.136C30.445,20.21,30.786,20.342,31.198,20.342z M30.569,17.902
		c0.108-0.154,0.249-0.231,0.423-0.231c0.171,0,0.308,0.07,0.413,0.209c0.105,0.139,0.157,0.335,0.157,0.589h-1.155
		C30.406,18.245,30.46,18.056,30.569,17.902z"/>
	<path class="st0" d="M32.332,20.279h0.836c-0.081-0.215-0.121-0.429-0.121-0.644v-0.215v-2.25c0-0.526,0.04-0.921,0.121-1.185
		l-0.836,0.171c0.081,0.312,0.121,0.653,0.121,1.023v2.159C32.453,19.698,32.413,20.011,32.332,20.279z"/>
	<path class="st0" d="M34.361,19.204c0,0.337,0.136,0.612,0.407,0.825c0.271,0.211,0.606,0.316,1.004,0.316
		c0.291,0,0.575-0.049,0.85-0.146c0.275-0.097,0.518-0.263,0.729-0.498c0.205,0.163,0.382,0.295,0.528,0.396
		c0.148,0.101,0.308,0.183,0.479,0.247l0.586-0.371c-0.174-0.05-0.358-0.127-0.55-0.234c-0.191-0.106-0.435-0.286-0.732-0.539
		c0.099-0.189,0.18-0.46,0.245-0.814c0.064-0.356,0.096-0.742,0.096-1.158c0.079,0,0.179,0.005,0.3,0.014
		c0.121,0.007,0.271,0.027,0.451,0.058v-0.539h-1.895V17.3c0.103-0.022,0.218-0.039,0.347-0.052
		c0.128-0.013,0.205-0.019,0.231-0.019v0.234c0,0.215-0.018,0.451-0.055,0.71c-0.035,0.257-0.091,0.467-0.168,0.63
		c-0.359-0.237-0.7-0.444-1.021-0.622c0.225-0.167,0.339-0.383,0.339-0.649c0-0.246-0.091-0.449-0.273-0.611
		c-0.18-0.161-0.389-0.242-0.627-0.242c-0.266,0-0.49,0.083-0.671,0.25c-0.182,0.167-0.273,0.38-0.273,0.638
		c0,0.268,0.105,0.483,0.314,0.646C34.575,18.461,34.361,18.791,34.361,19.204z M35.335,17.303c0.075-0.066,0.164-0.099,0.267-0.099
		c0.103,0,0.194,0.035,0.275,0.104c0.08,0.07,0.121,0.158,0.121,0.264c0,0.103-0.038,0.187-0.115,0.253
		c-0.077,0.064-0.165,0.096-0.264,0.096c-0.108,0-0.202-0.028-0.281-0.085c-0.077-0.059-0.115-0.144-0.115-0.256
		C35.222,17.461,35.26,17.369,35.335,17.303z M35.555,18.513c0.314,0.148,0.572,0.288,0.776,0.418
		c0.205,0.13,0.389,0.255,0.553,0.374c-0.125,0.16-0.274,0.278-0.448,0.355c-0.174,0.077-0.368,0.116-0.583,0.116
		c-0.279,0-0.494-0.053-0.646-0.16c-0.152-0.108-0.228-0.249-0.228-0.424C34.977,18.912,35.17,18.685,35.555,18.513z"/>
	<path class="st0" d="M41.792,20.643c0.468,0,0.912-0.105,1.334-0.316l0.03-0.707c-0.433,0.337-0.886,0.506-1.359,0.506
		c-0.424,0-0.767-0.156-1.029-0.468c-0.262-0.314-0.393-0.723-0.393-1.227c0-0.48,0.133-0.883,0.399-1.208
		c0.266-0.326,0.631-0.489,1.095-0.489c0.391,0,0.778,0.127,1.163,0.382V16.39c-0.295-0.116-0.654-0.173-1.075-0.173
		c-0.695,0-1.249,0.222-1.661,0.666c-0.413,0.444-0.619,0.983-0.619,1.617c0,0.642,0.199,1.16,0.597,1.554
		C40.674,20.446,41.18,20.643,41.792,20.643z"/>
	<path class="st0" d="M44.582,20.64c0.414,0,0.755-0.161,1.021-0.484c0.268-0.324,0.402-0.71,0.402-1.155
		c0-0.42-0.123-0.77-0.369-1.051c-0.244-0.281-0.559-0.421-0.946-0.421c-0.448,0-0.804,0.16-1.07,0.481
		c-0.264,0.321-0.396,0.7-0.396,1.136c0,0.447,0.135,0.809,0.404,1.084C43.899,20.503,44.217,20.64,44.582,20.64z M44.351,17.977
		c0.029-0.006,0.062-0.008,0.099-0.008c0.249,0,0.468,0.111,0.657,0.333c0.189,0.22,0.283,0.504,0.283,0.853
		c0,0.486-0.169,0.833-0.506,1.04c-0.044,0.004-0.075,0.005-0.094,0.005c-0.268,0-0.494-0.123-0.679-0.368
		c-0.183-0.246-0.275-0.541-0.275-0.886C43.836,18.476,44.008,18.153,44.351,17.977z"/>
	<path class="st0" d="M50.196,18.613c0-0.44-0.064-0.731-0.193-0.872c-0.128-0.141-0.291-0.212-0.487-0.212
		c-0.18,0-0.352,0.053-0.517,0.16l-0.459,0.495c-0.044-0.222-0.124-0.386-0.239-0.492c-0.115-0.108-0.27-0.162-0.462-0.162
		c-0.193,0-0.372,0.063-0.539,0.19l-0.377,0.465v-0.591h-0.715c0.08,0.308,0.121,0.662,0.121,1.062v1.023
		c0,0.394-0.04,0.694-0.121,0.9h0.836c-0.081-0.222-0.121-0.508-0.121-0.858V18.34c0.224-0.185,0.427-0.278,0.611-0.278
		c0.139,0,0.246,0.043,0.319,0.129c0.075,0.084,0.113,0.269,0.113,0.553v1.015c0,0.345-0.04,0.617-0.121,0.817h0.836
		c-0.08-0.216-0.121-0.53-0.121-0.941v-1.315c0.222-0.172,0.42-0.258,0.594-0.258c0.138,0,0.247,0.042,0.327,0.126
		c0.081,0.084,0.121,0.245,0.121,0.481v1.048c0,0.35-0.04,0.636-0.121,0.858h0.836c-0.08-0.225-0.121-0.525-0.121-0.9V18.613z"/>
	<path class="st0" d="M52.199,17.529c-0.151,0-0.29,0.04-0.418,0.121l-0.391,0.451v-0.509h-0.715c0.081,0.259,0.121,0.558,0.121,0.9
		v2.126c0,0.37-0.04,0.67-0.121,0.9h0.836c-0.08-0.218-0.121-0.464-0.121-0.737v-0.426c0.147,0.114,0.282,0.19,0.404,0.228
		c0.125,0.039,0.25,0.058,0.374,0.058c0.325,0,0.59-0.12,0.795-0.36c0.205-0.242,0.308-0.612,0.308-1.111
		c0-0.515-0.106-0.917-0.319-1.205C52.741,17.674,52.49,17.529,52.199,17.529z M52.43,19.952c-0.152,0.165-0.325,0.247-0.52,0.247
		c-0.207,0-0.38-0.093-0.52-0.281v-1.653c0.214-0.136,0.411-0.204,0.589-0.204c0.224,0,0.392,0.11,0.506,0.33
		c0.116,0.218,0.173,0.484,0.173,0.798C52.658,19.533,52.582,19.787,52.43,19.952z"/>
	<path class="st0" d="M55.489,18.692c0-0.444-0.083-0.748-0.247-0.913c-0.165-0.167-0.399-0.25-0.701-0.25
		c-0.211,0-0.427,0.046-0.649,0.137l-0.168,0.559c0.231-0.121,0.442-0.182,0.633-0.182c0.181,0,0.316,0.049,0.404,0.146
		c0.09,0.095,0.135,0.246,0.135,0.451v0.162l-0.748,0.311c-0.249,0.103-0.429,0.224-0.539,0.363
		c-0.108,0.139-0.162,0.293-0.162,0.459c0,0.211,0.075,0.381,0.226,0.512c0.15,0.128,0.371,0.193,0.663,0.193
		c0.02,0,0.053,0,0.099,0l0.462-0.355v0.292h0.715c-0.081-0.202-0.121-0.447-0.121-0.737V18.692z M54.895,20.134
		c-0.143,0.022-0.254,0.033-0.333,0.033c-0.132,0-0.25-0.027-0.352-0.083c-0.101-0.055-0.151-0.163-0.151-0.325
		c0-0.125,0.03-0.277,0.091-0.457h0.745V20.134z"/>
	<path class="st0" d="M60.784,18.585c0-0.387-0.071-0.659-0.214-0.817c-0.143-0.16-0.344-0.239-0.602-0.239
		c-0.13,0-0.262,0.026-0.396,0.077l-0.462,0.536v-0.55h-0.715c0.005,0.019,0.007,0.042,0.012,0.061
		c-0.171,0.035-0.361,0.054-0.576,0.054h-0.289c-0.187-0.119-0.384-0.179-0.591-0.179c-0.321,0-0.577,0.108-0.767,0.325
		c-0.189,0.216-0.283,0.462-0.283,0.737c0,0.398,0.195,0.701,0.586,0.908c-0.169,0.125-0.314,0.232-0.435,0.322
		c-0.119,0.09-0.179,0.177-0.179,0.261c0,0.09,0.037,0.163,0.113,0.22c0.075,0.057,0.228,0.098,0.459,0.124l-0.49,0.435
		c-0.055,0.051-0.083,0.118-0.083,0.201c0,0.152,0.085,0.267,0.256,0.344c0.171,0.075,0.416,0.113,0.737,0.113
		c0.484,0,0.832-0.098,1.042-0.294c0.211-0.198,0.316-0.411,0.316-0.638c0-0.172-0.053-0.32-0.16-0.443s-0.305-0.184-0.597-0.184
		c-0.064,0-0.144,0.003-0.239,0.008c-0.093,0.004-0.173,0.006-0.239,0.006c-0.299,0-0.448-0.06-0.448-0.179
		c0-0.072,0.063-0.148,0.19-0.228c0.066,0.022,0.138,0.033,0.217,0.033c0.299,0,0.549-0.102,0.751-0.305
		C57.899,19.088,58,18.858,58,18.602c0-0.147-0.038-0.306-0.115-0.479h0.495l0.049-0.352c0.053,0.249,0.086,0.512,0.086,0.803v1.144
		c0,0.343-0.04,0.629-0.121,0.858h0.836c-0.081-0.286-0.121-0.6-0.121-0.941v-1.337c0.242-0.158,0.445-0.237,0.608-0.237
		c0.148,0,0.264,0.048,0.346,0.143c0.085,0.095,0.127,0.267,0.127,0.514v1.04c0,0.354-0.04,0.626-0.121,0.817h0.836
		c-0.081-0.224-0.121-0.551-0.121-0.982V18.585z M56.647,20.439h0.509c0.213,0,0.348,0.028,0.404,0.083
		c0.059,0.055,0.088,0.122,0.088,0.201c0,0.119-0.055,0.206-0.165,0.261c-0.11,0.053-0.254,0.08-0.432,0.08
		c-0.198,0-0.346-0.024-0.443-0.071c-0.096-0.05-0.143-0.124-0.143-0.223C56.465,20.666,56.526,20.556,56.647,20.439z
		 M57.313,19.023c-0.094,0.09-0.202,0.135-0.325,0.135c-0.151,0-0.279-0.068-0.385-0.204c-0.105-0.137-0.157-0.297-0.157-0.479
		c0-0.163,0.049-0.288,0.146-0.374c0.097-0.088,0.206-0.132,0.327-0.132c0.161,0,0.291,0.068,0.388,0.204
		c0.097,0.136,0.146,0.289,0.146,0.459C57.453,18.802,57.406,18.933,57.313,19.023z"/>
	<path class="st0" d="M61.598,17.265c0.121,0,0.216-0.046,0.286-0.137c0.07-0.094,0.105-0.202,0.105-0.325
		c0-0.134-0.037-0.245-0.11-0.333c-0.074-0.09-0.168-0.135-0.283-0.135c-0.116,0-0.209,0.043-0.281,0.129
		c-0.071,0.086-0.107,0.199-0.107,0.338c0,0.134,0.036,0.245,0.107,0.333C61.388,17.222,61.483,17.265,61.598,17.265z"/>
	<path class="st0" d="M62.016,17.592H61.18c0.08,0.237,0.121,0.564,0.121,0.982v1.103c0,0.37-0.04,0.67-0.121,0.9h0.836
		c-0.081-0.222-0.121-0.522-0.121-0.9v-1.144C61.895,18.142,61.935,17.829,62.016,17.592z"/>
	<path class="st0" d="M64.52,18.907c0-0.466-0.1-0.811-0.3-1.037c-0.198-0.227-0.447-0.341-0.745-0.341
		c-0.359,0-0.657,0.147-0.891,0.44c-0.235,0.292-0.352,0.671-0.352,1.139c0,0.491,0.134,0.87,0.402,1.136
		c0.27,0.264,0.611,0.396,1.023,0.396c0.182,0,0.37-0.03,0.567-0.091l0.223-0.564c-0.255,0.121-0.48,0.181-0.677,0.181
		c-0.266,0-0.479-0.091-0.638-0.272c-0.16-0.183-0.255-0.427-0.286-0.732h1.667C64.517,19.089,64.52,19.004,64.52,18.907z
		 M62.864,18.767c0-0.224,0.054-0.413,0.162-0.567c0.108-0.154,0.249-0.231,0.423-0.231c0.171,0,0.308,0.07,0.413,0.209
		c0.105,0.139,0.157,0.335,0.157,0.589H62.864z"/>
	<path class="st0" d="M38.215,25.394l-0.144,0.144l-0.013-0.013l-5.926,5.926c-0.74-0.985-1.969-2.387-3.707-3.631
		c-0.165-0.118-0.336-0.235-0.514-0.352c-0.16-0.124-0.325-0.247-0.495-0.369c-2.786-1.994-7.447-3.91-13.829-1.72
		c-4.948,1.699-7.554,1.583-8.927,0.985c-0.746-0.86-0.657-1.972-0.616-2.272l8.234-6.071l0.128-0.096l-0.053-0.151
		c-0.014-0.039-1.255-3.909,7.057-8.651l0.057-0.032l0.029-0.058c0.049-0.097,1.04-2.105,1.364-5.339
		c0.534,1.143,1.052,2.562,1.16,3.932l0.431-0.034c-0.136-1.732-0.877-3.502-1.524-4.755c0.003-0.059,0.007-0.117,0.01-0.177
		c0.644,1.075,1.916,3.449,2.091,5.686l0.431-0.034c-0.244-3.114-2.444-6.351-2.538-6.487l-0.385-0.56l-0.01,0.68
		c-0.001,0.051-0.002,0.101-0.004,0.151c-0.331-0.58-0.581-0.947-0.611-0.99l-0.385-0.56l-0.01,0.68
		c-0.054,3.809-1.198,6.424-1.39,6.837c-7.757,4.444-7.422,8.166-7.235,8.98l-8.252,6.084l-0.017,0.081
		c-0.015,0.074-0.363,1.82,0.97,2.996c0.233,0.206,0.502,0.379,0.805,0.522c0.063,0.068,0.131,0.134,0.204,0.199
		c1.659,1.464,5.068,1.325,10.133-0.414c4.767-1.637,9.111-1.194,12.922,1.311c2.263,1.76,3.556,3.757,3.864,4.266l-0.134,0.134
		l1.325,1.325l6.826-6.826L38.215,25.394z M3.036,23.372l8.234-6.071l0.128-0.096l-0.053-0.151
		c-0.014-0.039-1.255-3.909,7.057-8.651l0.057-0.032l0.029-0.058c0.054-0.108,1.253-2.537,1.441-6.372
		c0.157,0.262,0.352,0.603,0.559,1c-0.212,3.265-1.175,5.466-1.35,5.842c-7.757,4.444-7.422,8.166-7.235,8.98L3.65,23.846
		l-0.017,0.081c-0.011,0.053-0.191,0.956,0.191,1.897C2.893,24.947,2.991,23.694,3.036,23.372z M14.596,26.101
		c-4.852,1.666-7.451,1.587-8.844,1.019c1.882,0.289,4.549-0.154,7.976-1.33c3.479-1.194,6.732-1.281,9.718-0.267
		C21.019,24.934,18.062,24.911,14.596,26.101z"/>
</g>
</svg>
