<svg version="1.0" id="Layer_1" xmlns="http://www.w3.org/2000/svg" xmlns:xlink="http://www.w3.org/1999/xlink" x="0px" y="0px"
	 viewBox="0 0 50.093 34.091" style="enable-background:new 0 0 50.093 34.091;" xml:space="preserve">
<style type="text/css">
	.st0{fill:#DF1B47;}
</style>
<g>
	<path class="st0" d="M16.715,17.056h2.242l0.357-0.81c-0.189,0.091-0.394,0.163-0.616,0.215c-0.22,0.053-0.617,0.096-1.189,0.131
		v-1.489c0.145,0,0.294,0.012,0.447,0.035c0.154,0.022,0.335,0.075,0.543,0.161l0.398-0.66h-1.388v-1.369
		c0.063-0.005,0.135-0.008,0.213-0.008c0.2,0,0.385,0.025,0.556,0.074c0.171,0.047,0.319,0.112,0.445,0.194l0.327-0.731h-2.334
		c0.094,0.431,0.142,0.879,0.142,1.344v1.432C16.856,16.259,16.809,16.752,16.715,17.056z"/>
	<path class="st0" d="M18.711,11.76h-0.802c-0.082,0.238-0.206,0.482-0.374,0.731h0.496C18.21,12.262,18.436,12.018,18.711,11.76z"
		/>
	<path class="st0" d="M19.562,16.232c0,0.36,0.059,0.598,0.177,0.714c0.118,0.115,0.289,0.172,0.513,0.172
		c0.164,0,0.353-0.031,0.57-0.093l0.221-0.567c-0.164,0.091-0.328,0.136-0.494,0.136c-0.136,0-0.237-0.039-0.302-0.117
		c-0.064-0.08-0.096-0.276-0.096-0.589v-1.374h0.69v-0.417h-0.69v-0.649l-0.984,1.066h0.396v1.383V16.232z"/>
	<path class="st0" d="M23.205,15.401c0-0.462-0.099-0.804-0.297-1.028c-0.196-0.225-0.443-0.338-0.739-0.338
		c-0.356,0-0.651,0.145-0.884,0.436c-0.233,0.289-0.349,0.665-0.349,1.129c0,0.487,0.133,0.863,0.398,1.126
		c0.267,0.262,0.605,0.393,1.014,0.393c0.18,0,0.367-0.03,0.562-0.09l0.221-0.559c-0.253,0.12-0.476,0.18-0.671,0.18
		c-0.264,0-0.474-0.09-0.633-0.27c-0.158-0.182-0.253-0.424-0.283-0.725h1.652C23.202,15.582,23.205,15.497,23.205,15.401z
		 M21.564,15.262c0-0.222,0.054-0.409,0.161-0.562c0.107-0.153,0.247-0.229,0.42-0.229c0.169,0,0.306,0.069,0.409,0.207
		c0.104,0.138,0.156,0.333,0.156,0.584H21.564z"/>
	<path class="st0" d="M26.009,14.097h-0.676l0.002-0.008c-0.08-0.036-0.171-0.055-0.273-0.055c-0.133,0-0.266,0.027-0.401,0.082
		L24.2,14.629v-0.532h-0.709c0.08,0.275,0.12,0.625,0.12,1.053v1.175c0,0.229-0.04,0.473-0.12,0.731h0.829
		c-0.08-0.204-0.12-0.501-0.12-0.892v-1.38c0.256-0.147,0.455-0.221,0.597-0.221c0.138,0,0.277,0.056,0.417,0.169l0.102-0.548
		c0.065,0.27,0.103,0.563,0.103,0.886v1.134c0,0.34-0.04,0.624-0.12,0.851h0.829c-0.08-0.284-0.12-0.594-0.12-0.933v-1.325
		c0.24-0.156,0.441-0.235,0.603-0.235c0.147,0,0.262,0.047,0.343,0.142c0.084,0.094,0.126,0.264,0.126,0.51v1.031
		c0,0.351-0.04,0.621-0.12,0.81h0.829c-0.08-0.222-0.12-0.546-0.12-0.974v-1.001c0-0.384-0.071-0.654-0.213-0.81
		c-0.142-0.158-0.341-0.237-0.597-0.237c-0.129,0-0.26,0.025-0.393,0.076l-0.458,0.532V14.097z"/>
	<path class="st0" d="M29.401,17.119c0.18,0,0.367-0.03,0.562-0.09l0.221-0.559c-0.253,0.12-0.476,0.18-0.671,0.18
		c-0.264,0-0.474-0.09-0.633-0.27c-0.158-0.182-0.253-0.424-0.283-0.725h1.652c0.005-0.073,0.008-0.157,0.008-0.254
		c0-0.462-0.099-0.804-0.297-1.028c-0.196-0.225-0.443-0.338-0.739-0.338c-0.356,0-0.651,0.145-0.884,0.436
		c-0.233,0.289-0.349,0.665-0.349,1.129c0,0.487,0.133,0.863,0.398,1.126C28.654,16.988,28.992,17.119,29.401,17.119z M28.777,14.7
		c0.107-0.153,0.247-0.229,0.42-0.229c0.169,0,0.306,0.069,0.409,0.207c0.104,0.138,0.156,0.333,0.156,0.584h-1.145
		C28.616,15.04,28.67,14.853,28.777,14.7z"/>
	<path class="st0" d="M30.525,17.056h0.829c-0.08-0.213-0.12-0.425-0.12-0.638v-0.213v-2.231c0-0.522,0.04-0.914,0.12-1.175
		l-0.829,0.169c0.08,0.309,0.12,0.647,0.12,1.014v2.141C30.645,16.48,30.605,16.791,30.525,17.056z"/>
	<path class="st0" d="M32.537,15.99c0,0.334,0.135,0.607,0.404,0.818c0.269,0.209,0.601,0.314,0.995,0.314
		c0.289,0,0.57-0.048,0.843-0.144c0.273-0.096,0.514-0.261,0.723-0.494c0.204,0.162,0.378,0.293,0.524,0.393
		c0.147,0.1,0.305,0.182,0.474,0.245l0.581-0.368c-0.173-0.049-0.355-0.126-0.545-0.232c-0.189-0.105-0.431-0.283-0.725-0.534
		c0.098-0.187,0.179-0.456,0.243-0.807c0.064-0.353,0.096-0.735,0.096-1.148c0.078,0,0.177,0.005,0.297,0.014
		c0.12,0.007,0.269,0.026,0.447,0.057v-0.534h-1.879v0.534c0.102-0.022,0.216-0.039,0.344-0.052
		c0.127-0.013,0.203-0.019,0.229-0.019v0.232c0,0.213-0.018,0.447-0.055,0.704c-0.034,0.255-0.09,0.463-0.166,0.625
		c-0.356-0.235-0.694-0.44-1.012-0.616c0.224-0.165,0.336-0.38,0.336-0.644c0-0.244-0.09-0.445-0.27-0.605
		c-0.178-0.16-0.385-0.24-0.622-0.24c-0.264,0-0.485,0.083-0.665,0.248c-0.18,0.166-0.27,0.376-0.27,0.633
		c0,0.265,0.104,0.479,0.311,0.641C32.749,15.253,32.537,15.581,32.537,15.99z M33.502,14.105c0.075-0.065,0.163-0.098,0.264-0.098
		c0.102,0,0.193,0.034,0.273,0.104c0.08,0.069,0.12,0.156,0.12,0.262c0,0.102-0.038,0.186-0.114,0.251
		c-0.076,0.064-0.164,0.096-0.262,0.096c-0.107,0-0.2-0.028-0.278-0.085c-0.076-0.058-0.114-0.143-0.114-0.254
		C33.391,14.263,33.428,14.171,33.502,14.105z M33.721,15.305c0.311,0.147,0.567,0.285,0.769,0.415
		c0.203,0.129,0.386,0.253,0.548,0.371c-0.124,0.158-0.272,0.275-0.445,0.352c-0.173,0.076-0.365,0.115-0.578,0.115
		c-0.276,0-0.49-0.053-0.641-0.158c-0.151-0.107-0.226-0.247-0.226-0.42C33.148,15.701,33.339,15.476,33.721,15.305z"/>
	<path class="st0" d="M27.514,23.021c0.464,0,0.904-0.104,1.323-0.314l0.03-0.701c-0.429,0.334-0.878,0.502-1.347,0.502
		c-0.42,0-0.76-0.154-1.02-0.464c-0.26-0.311-0.39-0.716-0.39-1.216c0-0.476,0.132-0.875,0.396-1.197
		c0.264-0.324,0.625-0.485,1.085-0.485c0.387,0,0.772,0.126,1.153,0.379v-0.72c-0.293-0.115-0.648-0.172-1.066-0.172
		c-0.689,0-1.238,0.22-1.647,0.66c-0.409,0.44-0.614,0.974-0.614,1.603c0,0.636,0.197,1.15,0.592,1.541
		C26.405,22.827,26.907,23.021,27.514,23.021z"/>
	<path class="st0" d="M30.28,23.019c0.411,0,0.748-0.16,1.012-0.48c0.265-0.322,0.398-0.704,0.398-1.145
		c0-0.416-0.122-0.764-0.366-1.042c-0.242-0.278-0.555-0.417-0.938-0.417c-0.444,0-0.797,0.159-1.061,0.477
		c-0.262,0.318-0.393,0.694-0.393,1.126c0,0.444,0.134,0.802,0.401,1.074C29.602,22.883,29.918,23.019,30.28,23.019z M30.051,20.379
		c0.029-0.005,0.062-0.008,0.098-0.008c0.247,0,0.464,0.11,0.652,0.33c0.187,0.218,0.281,0.5,0.281,0.845
		c0,0.482-0.167,0.825-0.502,1.031c-0.044,0.004-0.075,0.005-0.093,0.005c-0.265,0-0.49-0.122-0.674-0.365
		c-0.182-0.244-0.273-0.536-0.273-0.878C29.541,20.874,29.711,20.553,30.051,20.379z"/>
	<path class="st0" d="M35.845,21.009c0-0.436-0.064-0.724-0.191-0.864c-0.127-0.14-0.288-0.21-0.483-0.21
		c-0.178,0-0.349,0.053-0.513,0.158l-0.455,0.491c-0.044-0.22-0.123-0.383-0.237-0.488c-0.114-0.107-0.267-0.161-0.458-0.161
		c-0.191,0-0.369,0.063-0.534,0.188L32.6,20.584v-0.586h-0.709c0.08,0.306,0.12,0.656,0.12,1.053v1.014
		c0,0.391-0.04,0.688-0.12,0.892h0.829c-0.08-0.22-0.12-0.504-0.12-0.851v-1.366c0.222-0.184,0.423-0.275,0.605-0.275
		c0.138,0,0.244,0.043,0.316,0.128c0.075,0.084,0.112,0.266,0.112,0.548v1.006c0,0.342-0.04,0.612-0.12,0.81h0.829
		c-0.08-0.214-0.12-0.525-0.12-0.933V20.72c0.22-0.171,0.416-0.256,0.589-0.256c0.137,0,0.245,0.042,0.325,0.125
		c0.08,0.084,0.12,0.243,0.12,0.477v1.039c0,0.347-0.04,0.631-0.12,0.851h0.829c-0.08-0.224-0.12-0.521-0.12-0.892V21.009z"/>
	<path class="st0" d="M37.831,19.935c-0.149,0-0.287,0.04-0.415,0.12l-0.387,0.447v-0.505H36.32c0.08,0.256,0.12,0.554,0.12,0.892
		v2.108c0,0.367-0.04,0.664-0.12,0.892h0.829c-0.08-0.216-0.12-0.46-0.12-0.731v-0.423c0.145,0.113,0.279,0.188,0.401,0.226
		c0.124,0.038,0.247,0.057,0.371,0.057c0.322,0,0.585-0.119,0.788-0.357c0.204-0.24,0.306-0.607,0.306-1.102
		c0-0.511-0.105-0.909-0.316-1.194C38.369,20.078,38.12,19.935,37.831,19.935z M38.06,22.337c-0.151,0.163-0.323,0.245-0.515,0.245
		c-0.205,0-0.377-0.093-0.515-0.278v-1.639c0.213-0.135,0.407-0.202,0.584-0.202c0.222,0,0.389,0.109,0.502,0.327
		c0.115,0.216,0.172,0.48,0.172,0.791C38.286,21.922,38.211,22.173,38.06,22.337z"/>
	<path class="st0" d="M41.093,21.088c0-0.44-0.082-0.742-0.245-0.905c-0.164-0.166-0.396-0.248-0.695-0.248
		c-0.209,0-0.424,0.046-0.644,0.136l-0.167,0.554c0.229-0.12,0.438-0.18,0.627-0.18c0.18,0,0.313,0.048,0.401,0.144
		c0.089,0.095,0.134,0.244,0.134,0.447v0.161l-0.742,0.308c-0.247,0.102-0.425,0.222-0.534,0.36
		c-0.107,0.138-0.161,0.29-0.161,0.455c0,0.209,0.075,0.378,0.224,0.507c0.149,0.127,0.368,0.191,0.657,0.191
		c0.02,0,0.053,0,0.098,0l0.458-0.352v0.289h0.709c-0.08-0.2-0.12-0.444-0.12-0.731V21.088z M40.504,22.517
		c-0.142,0.022-0.252,0.033-0.33,0.033c-0.131,0-0.247-0.027-0.349-0.082c-0.1-0.054-0.15-0.162-0.15-0.322
		c0-0.124,0.03-0.274,0.09-0.453h0.739V22.517z"/>
	<path class="st0" d="M46.342,20.982c0-0.384-0.071-0.654-0.213-0.81c-0.142-0.158-0.341-0.237-0.597-0.237
		c-0.129,0-0.26,0.025-0.393,0.076l-0.458,0.532v-0.545h-0.709c0.005,0.019,0.007,0.041,0.012,0.061
		c-0.169,0.035-0.358,0.054-0.571,0.054h-0.286c-0.185-0.118-0.381-0.177-0.586-0.177c-0.318,0-0.572,0.107-0.761,0.322
		c-0.187,0.214-0.281,0.458-0.281,0.731c0,0.395,0.194,0.695,0.581,0.9c-0.167,0.124-0.311,0.23-0.431,0.319
		c-0.118,0.089-0.177,0.175-0.177,0.259c0,0.089,0.037,0.162,0.112,0.218c0.075,0.056,0.226,0.097,0.455,0.123l-0.485,0.431
		c-0.055,0.051-0.082,0.117-0.082,0.199c0,0.151,0.084,0.264,0.254,0.341c0.169,0.075,0.413,0.112,0.731,0.112
		c0.48,0,0.825-0.097,1.033-0.292c0.209-0.196,0.314-0.407,0.314-0.633c0-0.171-0.053-0.317-0.158-0.439
		c-0.105-0.122-0.303-0.183-0.592-0.183c-0.064,0-0.143,0.003-0.237,0.008c-0.092,0.004-0.172,0.005-0.237,0.005
		c-0.296,0-0.445-0.059-0.445-0.177c0-0.071,0.063-0.146,0.188-0.226c0.065,0.022,0.137,0.033,0.215,0.033
		c0.296,0,0.544-0.101,0.744-0.303s0.3-0.43,0.3-0.684c0-0.145-0.038-0.303-0.114-0.474h0.491l0.049-0.349
		c0.052,0.246,0.085,0.508,0.085,0.796v1.134c0,0.34-0.04,0.624-0.12,0.851h0.829c-0.08-0.284-0.12-0.594-0.12-0.933v-1.325
		c0.24-0.156,0.441-0.235,0.603-0.235c0.147,0,0.262,0.047,0.343,0.142c0.084,0.094,0.126,0.264,0.126,0.51v1.031
		c0,0.351-0.04,0.621-0.12,0.81h0.829c-0.08-0.222-0.12-0.546-0.12-0.974V20.982z M42.241,22.82h0.504
		c0.211,0,0.345,0.027,0.401,0.082c0.058,0.055,0.087,0.121,0.087,0.199c0,0.118-0.055,0.205-0.164,0.259
		c-0.109,0.053-0.252,0.079-0.428,0.079c-0.196,0-0.343-0.024-0.439-0.071c-0.095-0.049-0.142-0.123-0.142-0.221
		C42.061,23.045,42.121,22.936,42.241,22.82z M42.901,21.415c-0.093,0.089-0.2,0.134-0.322,0.134c-0.149,0-0.276-0.067-0.382-0.202
		c-0.104-0.136-0.156-0.294-0.156-0.474c0-0.162,0.048-0.285,0.145-0.371c0.096-0.087,0.205-0.131,0.324-0.131
		c0.16,0,0.288,0.067,0.385,0.202c0.096,0.135,0.145,0.286,0.145,0.455C43.04,21.197,42.994,21.326,42.901,21.415z"/>
	<path class="st0" d="M47.15,19.673c0.12,0,0.215-0.045,0.284-0.136c0.069-0.093,0.104-0.2,0.104-0.322
		c0-0.133-0.037-0.243-0.109-0.33c-0.073-0.089-0.166-0.134-0.281-0.134s-0.207,0.043-0.278,0.128
		c-0.071,0.086-0.106,0.197-0.106,0.335c0,0.133,0.035,0.243,0.106,0.33C46.942,19.63,47.035,19.673,47.15,19.673z"/>
	<path class="st0" d="M47.564,19.997h-0.829c0.08,0.235,0.12,0.559,0.12,0.974v1.093c0,0.367-0.04,0.664-0.12,0.892h0.829
		c-0.08-0.22-0.12-0.517-0.12-0.892V20.93C47.444,20.543,47.484,20.232,47.564,19.997z"/>
	<path class="st0" d="M50.046,21.301c0-0.462-0.099-0.804-0.297-1.028c-0.196-0.225-0.443-0.338-0.739-0.338
		c-0.356,0-0.651,0.145-0.884,0.436c-0.233,0.289-0.349,0.665-0.349,1.129c0,0.487,0.133,0.863,0.398,1.126
		c0.267,0.262,0.605,0.393,1.014,0.393c0.18,0,0.367-0.03,0.562-0.09l0.221-0.559c-0.253,0.12-0.476,0.18-0.671,0.18
		c-0.264,0-0.474-0.09-0.633-0.27c-0.158-0.182-0.253-0.424-0.283-0.725h1.652C50.044,21.482,50.046,21.397,50.046,21.301z
		 M48.405,21.162c0-0.222,0.054-0.409,0.161-0.562c0.107-0.153,0.247-0.229,0.42-0.229c0.169,0,0.306,0.069,0.409,0.207
		c0.104,0.138,0.156,0.333,0.156,0.584H48.405z"/>
	<path class="st0" d="M38.204,25.44l-0.145,0.145l-0.013-0.013l-5.958,5.958c-0.745-0.991-1.98-2.4-3.727-3.651
		c-0.165-0.118-0.338-0.236-0.517-0.354c-0.161-0.125-0.327-0.249-0.498-0.371c-2.802-2.005-7.488-3.932-13.905-1.73
		c-4.976,1.708-7.596,1.592-8.976,0.99c-0.75-0.864-0.661-1.983-0.619-2.285l8.28-6.104l0.129-0.096L12.2,17.78
		c-0.014-0.039-1.262-3.931,7.096-8.699l0.057-0.033l0.029-0.059c0.049-0.098,1.046-2.116,1.371-5.368
		c0.537,1.149,1.058,2.576,1.166,3.954l0.433-0.034C22.217,5.8,21.472,4.02,20.821,2.76c0.003-0.059,0.007-0.118,0.01-0.178
		c0.648,1.081,1.926,3.468,2.103,5.717l0.433-0.034c-0.245-3.131-2.458-6.386-2.552-6.523l-0.387-0.564l-0.01,0.683
		c-0.001,0.051-0.002,0.101-0.004,0.152c-0.333-0.583-0.584-0.952-0.614-0.996l-0.387-0.564l-0.01,0.683
		c-0.055,3.83-1.204,6.459-1.397,6.875c-7.799,4.469-7.462,8.211-7.275,9.029l-8.297,6.117L2.418,23.24
		c-0.016,0.074-0.365,1.83,0.975,3.013c0.235,0.207,0.505,0.381,0.809,0.524c0.064,0.068,0.131,0.135,0.205,0.2
		c1.668,1.472,5.096,1.333,10.189-0.416c4.793-1.646,9.161-1.2,12.993,1.319c2.276,1.77,3.576,3.778,3.885,4.289l-0.135,0.135
		l1.332,1.332l6.864-6.864L38.204,25.44z M2.831,23.407l8.28-6.104l0.129-0.096l-0.053-0.152c-0.014-0.039-1.262-3.931,7.096-8.699
		l0.057-0.033l0.029-0.059c0.054-0.108,1.26-2.55,1.449-6.408c0.158,0.264,0.354,0.607,0.562,1.005
		c-0.214,3.283-1.182,5.496-1.358,5.874c-7.799,4.469-7.462,8.211-7.275,9.029l-8.297,6.117l-0.017,0.081
		c-0.011,0.053-0.192,0.962,0.192,1.908C2.687,24.991,2.786,23.731,2.831,23.407z M14.455,26.15
		c-4.879,1.675-7.492,1.595-8.893,1.024c1.892,0.291,4.574-0.155,8.02-1.338c3.498-1.201,6.769-1.288,9.771-0.269
		C20.913,24.978,17.94,24.954,14.455,26.15z"/>
</g>
</svg>
