<?xml version="1.0" encoding="utf-8"?>
<!-- Generator: Adobe Illustrator 24.1.1, SVG Export Plug-In . SVG Version: 6.00 Build 0)  -->
<svg version="1.0" id="Layer_1" xmlns="http://www.w3.org/2000/svg" xmlns:xlink="http://www.w3.org/1999/xlink" x="0px" y="0px"
	 viewBox="0 0 50.093 34.091" style="enable-background:new 0 0 50.093 34.091;" xml:space="preserve">
<style type="text/css">
	.st0{fill:#FFFFFF;}
</style>
<g>
	<path class="st0" d="M20.034,17.209h1.795l0.286-0.649c-0.151,0.073-0.316,0.13-0.493,0.173c-0.176,0.042-0.494,0.077-0.952,0.105
		v-1.192c0.116,0,0.236,0.009,0.358,0.028c0.124,0.018,0.269,0.06,0.435,0.129l0.319-0.528h-1.112v-1.096
		c0.051-0.004,0.108-0.007,0.17-0.007c0.16,0,0.309,0.02,0.446,0.059c0.137,0.038,0.255,0.09,0.356,0.155l0.262-0.585h-1.869
		c0.076,0.345,0.114,0.704,0.114,1.077v1.147C20.147,16.571,20.109,16.966,20.034,17.209z"/>
	<path class="st0" d="M21.632,12.968H20.99c-0.066,0.191-0.165,0.386-0.299,0.585h0.398C21.231,13.37,21.412,13.175,21.632,12.968z"
		/>
	<path class="st0" d="M22.314,16.55c0,0.288,0.047,0.479,0.142,0.572c0.095,0.092,0.231,0.138,0.411,0.138
		c0.131,0,0.283-0.025,0.456-0.074l0.177-0.454c-0.131,0.073-0.263,0.109-0.395,0.109c-0.109,0-0.19-0.031-0.242-0.094
		c-0.051-0.064-0.077-0.221-0.077-0.472v-1.101h0.553V14.84h-0.553v-0.52l-0.788,0.854h0.317v1.107V16.55z"/>
	<path class="st0" d="M25.232,15.883c0-0.37-0.079-0.644-0.238-0.823c-0.157-0.18-0.355-0.271-0.592-0.271
		c-0.285,0-0.521,0.117-0.708,0.349c-0.186,0.232-0.28,0.533-0.28,0.904c0,0.39,0.106,0.691,0.319,0.902
		c0.214,0.21,0.485,0.314,0.812,0.314c0.144,0,0.294-0.024,0.45-0.072l0.177-0.448c-0.202,0.096-0.381,0.144-0.537,0.144
		c-0.211,0-0.38-0.072-0.507-0.216c-0.127-0.146-0.202-0.339-0.227-0.581h1.323C25.23,16.028,25.232,15.961,25.232,15.883z
		 M23.917,15.772c0-0.178,0.043-0.328,0.129-0.45c0.086-0.122,0.198-0.183,0.336-0.183c0.135,0,0.245,0.055,0.328,0.166
		c0.083,0.111,0.125,0.266,0.125,0.467H23.917z"/>
	<path class="st0" d="M27.477,14.84h-0.541l0.001-0.006c-0.064-0.029-0.137-0.044-0.218-0.044c-0.106,0-0.213,0.022-0.321,0.066
		l-0.369,0.411V14.84h-0.568c0.064,0.22,0.096,0.501,0.096,0.843v0.941c0,0.184-0.032,0.379-0.096,0.585h0.664
		c-0.064-0.163-0.096-0.401-0.096-0.714V15.39c0.205-0.118,0.365-0.177,0.478-0.177c0.111,0,0.222,0.045,0.334,0.135l0.082-0.439
		c0.052,0.217,0.082,0.451,0.082,0.709v0.908c0,0.272-0.032,0.499-0.096,0.681h0.664c-0.064-0.227-0.096-0.476-0.096-0.747v-1.061
		c0.192-0.125,0.353-0.188,0.483-0.188c0.118,0,0.209,0.038,0.275,0.114c0.067,0.076,0.101,0.212,0.101,0.408v0.825
		c0,0.281-0.032,0.497-0.096,0.649h0.664c-0.064-0.178-0.096-0.438-0.096-0.78v-0.801c0-0.307-0.057-0.523-0.17-0.649
		c-0.114-0.127-0.273-0.19-0.478-0.19c-0.103,0-0.208,0.02-0.314,0.061l-0.367,0.426V14.84z"/>
	<path class="st0" d="M30.194,17.259c0.144,0,0.294-0.024,0.45-0.072l0.177-0.448c-0.202,0.096-0.381,0.144-0.537,0.144
		c-0.211,0-0.38-0.072-0.507-0.216c-0.127-0.146-0.202-0.339-0.227-0.581h1.323c0.004-0.058,0.007-0.126,0.007-0.203
		c0-0.37-0.079-0.644-0.238-0.823c-0.157-0.18-0.355-0.271-0.592-0.271c-0.285,0-0.521,0.117-0.708,0.349
		c-0.186,0.232-0.28,0.533-0.28,0.904c0,0.39,0.106,0.691,0.319,0.902C29.596,17.154,29.866,17.259,30.194,17.259z M29.694,15.322
		c0.086-0.122,0.198-0.183,0.336-0.183c0.135,0,0.245,0.055,0.328,0.166c0.083,0.111,0.125,0.266,0.125,0.467h-0.917
		C29.565,15.594,29.608,15.444,29.694,15.322z"/>
	<path class="st0" d="M31.094,17.209h0.664c-0.064-0.17-0.096-0.341-0.096-0.511v-0.17v-1.786c0-0.418,0.032-0.732,0.096-0.941
		l-0.664,0.135c0.064,0.247,0.096,0.518,0.096,0.812v1.714C31.19,16.748,31.158,16.996,31.094,17.209z"/>
	<path class="st0" d="M32.705,16.355c0,0.268,0.108,0.486,0.323,0.655c0.215,0.167,0.481,0.251,0.797,0.251
		c0.231,0,0.456-0.039,0.675-0.116c0.218-0.077,0.411-0.209,0.579-0.395c0.163,0.13,0.303,0.235,0.419,0.315
		c0.118,0.08,0.245,0.145,0.38,0.196l0.465-0.295c-0.138-0.039-0.284-0.101-0.437-0.186c-0.152-0.084-0.345-0.227-0.581-0.428
		c0.079-0.15,0.143-0.365,0.194-0.646c0.051-0.282,0.077-0.589,0.077-0.919c0.063,0,0.142,0.004,0.238,0.011
		c0.096,0.006,0.215,0.021,0.358,0.046v-0.428h-1.505v0.428c0.081-0.017,0.173-0.031,0.275-0.042
		c0.102-0.01,0.163-0.015,0.183-0.015v0.186c0,0.17-0.015,0.358-0.044,0.563c-0.027,0.204-0.072,0.371-0.133,0.5
		c-0.285-0.188-0.556-0.352-0.81-0.494c0.179-0.132,0.269-0.304,0.269-0.515c0-0.195-0.072-0.357-0.216-0.485
		c-0.143-0.128-0.308-0.192-0.498-0.192c-0.211,0-0.389,0.066-0.533,0.199c-0.144,0.133-0.216,0.301-0.216,0.507
		c0,0.212,0.083,0.384,0.249,0.513C32.875,15.765,32.705,16.028,32.705,16.355z M33.478,14.846c0.06-0.052,0.13-0.079,0.212-0.079
		s0.154,0.028,0.218,0.083c0.064,0.055,0.096,0.125,0.096,0.21c0,0.082-0.03,0.149-0.092,0.201c-0.061,0.051-0.131,0.076-0.21,0.076
		c-0.086,0-0.16-0.023-0.223-0.068c-0.061-0.047-0.092-0.114-0.092-0.203C33.389,14.972,33.418,14.898,33.478,14.846z
		 M33.653,15.807c0.249,0.118,0.454,0.229,0.616,0.332c0.163,0.103,0.309,0.202,0.439,0.297c-0.099,0.127-0.218,0.221-0.356,0.282
		c-0.138,0.061-0.293,0.092-0.463,0.092c-0.221,0-0.392-0.042-0.513-0.127c-0.121-0.086-0.181-0.198-0.181-0.336
		C33.194,16.124,33.347,15.944,33.653,15.807z"/>
	<path class="st0" d="M28.683,21.986c0.371,0,0.724-0.084,1.059-0.251l0.024-0.561c-0.344,0.268-0.703,0.402-1.079,0.402
		c-0.336,0-0.609-0.124-0.817-0.371c-0.208-0.249-0.312-0.574-0.312-0.974c0-0.381,0.106-0.701,0.317-0.959
		c0.211-0.259,0.501-0.389,0.869-0.389c0.31,0,0.618,0.101,0.924,0.303V18.61c-0.234-0.092-0.519-0.138-0.854-0.138
		c-0.552,0-0.991,0.176-1.319,0.528c-0.328,0.352-0.491,0.78-0.491,1.284c0,0.51,0.158,0.921,0.474,1.234
		C27.795,21.831,28.196,21.986,28.683,21.986z"/>
	<path class="st0" d="M30.897,21.984c0.329,0,0.599-0.128,0.81-0.384c0.212-0.258,0.319-0.563,0.319-0.917
		c0-0.333-0.098-0.611-0.293-0.834c-0.194-0.223-0.444-0.334-0.751-0.334c-0.355,0-0.638,0.127-0.849,0.382
		c-0.21,0.255-0.314,0.555-0.314,0.902c0,0.355,0.107,0.642,0.321,0.86C30.355,21.876,30.607,21.984,30.897,21.984z M30.714,19.87
		c0.023-0.004,0.049-0.007,0.079-0.007c0.198,0,0.372,0.088,0.522,0.264c0.15,0.175,0.225,0.4,0.225,0.677
		c0,0.386-0.134,0.661-0.402,0.826c-0.035,0.003-0.06,0.004-0.074,0.004c-0.212,0-0.392-0.097-0.539-0.293
		c-0.146-0.195-0.218-0.429-0.218-0.703C30.305,20.266,30.442,20.01,30.714,19.87z"/>
	<path class="st0" d="M35.355,20.375c0-0.349-0.051-0.58-0.153-0.692c-0.102-0.112-0.231-0.168-0.386-0.168
		c-0.143,0-0.28,0.042-0.411,0.127l-0.365,0.393c-0.035-0.176-0.098-0.306-0.19-0.391c-0.092-0.086-0.214-0.129-0.367-0.129
		c-0.153,0-0.296,0.05-0.428,0.151l-0.299,0.369v-0.47h-0.568c0.064,0.245,0.096,0.526,0.096,0.843v0.812
		c0,0.313-0.032,0.551-0.096,0.714h0.664c-0.064-0.176-0.096-0.403-0.096-0.681v-1.094c0.178-0.147,0.339-0.221,0.485-0.221
		c0.111,0,0.195,0.034,0.253,0.103c0.06,0.067,0.09,0.213,0.09,0.439v0.806c0,0.274-0.032,0.49-0.096,0.649h0.664
		c-0.064-0.172-0.096-0.421-0.096-0.747v-1.044c0.176-0.137,0.333-0.205,0.472-0.205c0.109,0,0.196,0.033,0.26,0.1
		c0.064,0.067,0.096,0.194,0.096,0.382v0.832c0,0.278-0.032,0.505-0.096,0.681h0.664c-0.064-0.179-0.096-0.417-0.096-0.714V20.375z"
		/>
	<path class="st0" d="M36.945,19.514c-0.12,0-0.23,0.032-0.332,0.096l-0.31,0.358v-0.404h-0.568
		c0.064,0.205,0.096,0.443,0.096,0.714v1.688c0,0.294-0.032,0.532-0.096,0.714h0.664c-0.064-0.173-0.096-0.368-0.096-0.585v-0.338
		c0.117,0.09,0.224,0.151,0.321,0.181c0.099,0.031,0.198,0.046,0.297,0.046c0.258,0,0.468-0.095,0.631-0.286
		c0.163-0.192,0.245-0.486,0.245-0.882c0-0.409-0.084-0.728-0.253-0.957C37.376,19.629,37.176,19.514,36.945,19.514z M37.128,21.438
		c-0.121,0.131-0.258,0.196-0.413,0.196c-0.164,0-0.302-0.074-0.413-0.223V20.1c0.17-0.108,0.326-0.162,0.467-0.162
		c0.178,0,0.311,0.087,0.402,0.262c0.092,0.173,0.138,0.384,0.138,0.633C37.309,21.106,37.249,21.307,37.128,21.438z"/>
	<path class="st0" d="M39.557,20.438c0-0.352-0.066-0.594-0.196-0.725c-0.131-0.133-0.317-0.199-0.557-0.199
		c-0.167,0-0.339,0.036-0.515,0.109l-0.133,0.443c0.184-0.096,0.351-0.144,0.502-0.144c0.144,0,0.251,0.039,0.321,0.116
		c0.071,0.076,0.107,0.195,0.107,0.358v0.129l-0.594,0.247c-0.198,0.082-0.341,0.178-0.428,0.288
		c-0.086,0.111-0.129,0.232-0.129,0.365c0,0.167,0.06,0.303,0.179,0.406c0.119,0.102,0.295,0.153,0.526,0.153
		c0.016,0,0.042,0,0.079,0l0.367-0.282v0.232h0.568c-0.064-0.16-0.096-0.355-0.096-0.585V20.438z M39.085,21.582
		c-0.114,0.017-0.202,0.026-0.264,0.026c-0.105,0-0.198-0.022-0.28-0.066c-0.08-0.044-0.12-0.13-0.12-0.258
		c0-0.099,0.024-0.22,0.072-0.362h0.592V21.582z"/>
	<path class="st0" d="M43.761,20.353c0-0.307-0.057-0.523-0.17-0.649c-0.114-0.127-0.273-0.19-0.478-0.19
		c-0.103,0-0.208,0.02-0.314,0.061l-0.367,0.426v-0.437h-0.568c0.004,0.015,0.006,0.033,0.009,0.049
		c-0.136,0.028-0.287,0.043-0.457,0.043h-0.229c-0.148-0.095-0.305-0.142-0.469-0.142c-0.255,0-0.458,0.086-0.609,0.258
		c-0.15,0.172-0.225,0.367-0.225,0.585c0,0.316,0.155,0.556,0.465,0.721c-0.134,0.099-0.249,0.184-0.345,0.256
		c-0.095,0.071-0.142,0.141-0.142,0.207c0,0.071,0.03,0.13,0.09,0.175c0.06,0.045,0.181,0.078,0.365,0.098l-0.389,0.345
		c-0.044,0.041-0.066,0.094-0.066,0.159c0,0.121,0.068,0.212,0.203,0.273c0.135,0.06,0.33,0.09,0.585,0.09
		c0.384,0,0.66-0.078,0.828-0.234c0.167-0.157,0.251-0.326,0.251-0.507c0-0.137-0.042-0.254-0.127-0.352
		c-0.084-0.098-0.242-0.146-0.474-0.146c-0.051,0-0.114,0.002-0.19,0.007c-0.074,0.003-0.138,0.004-0.19,0.004
		c-0.237,0-0.356-0.047-0.356-0.142c0-0.057,0.05-0.117,0.151-0.181c0.052,0.018,0.11,0.026,0.173,0.026
		c0.237,0,0.436-0.081,0.596-0.242c0.16-0.162,0.24-0.344,0.24-0.548c0-0.116-0.03-0.243-0.092-0.38h0.393l0.039-0.279
		c0.042,0.197,0.068,0.407,0.068,0.638v0.908c0,0.272-0.032,0.499-0.096,0.681h0.664c-0.064-0.227-0.096-0.476-0.096-0.747v-1.061
		c0.192-0.125,0.353-0.188,0.483-0.188c0.118,0,0.209,0.038,0.275,0.114c0.067,0.076,0.101,0.212,0.101,0.408v0.825
		c0,0.281-0.032,0.497-0.096,0.649h0.664c-0.064-0.178-0.096-0.438-0.096-0.78V20.353z M40.476,21.825h0.404
		c0.169,0,0.276,0.022,0.321,0.066c0.047,0.044,0.07,0.097,0.07,0.159c0,0.095-0.044,0.164-0.131,0.208
		c-0.087,0.042-0.202,0.063-0.343,0.063c-0.157,0-0.275-0.019-0.352-0.057c-0.076-0.039-0.114-0.098-0.114-0.177
		C40.332,22.005,40.38,21.918,40.476,21.825z M41.005,20.7c-0.074,0.071-0.16,0.107-0.258,0.107c-0.12,0-0.221-0.054-0.306-0.162
		c-0.083-0.109-0.125-0.236-0.125-0.38c0-0.13,0.039-0.229,0.116-0.297c0.077-0.07,0.164-0.105,0.26-0.105
		c0.128,0,0.231,0.054,0.308,0.162c0.077,0.108,0.116,0.229,0.116,0.365C41.116,20.525,41.079,20.629,41.005,20.7z"/>
	<path class="st0" d="M44.407,19.305c0.096,0,0.172-0.036,0.227-0.109c0.055-0.074,0.083-0.16,0.083-0.258
		c0-0.106-0.029-0.194-0.087-0.264c-0.058-0.071-0.133-0.107-0.225-0.107c-0.092,0-0.166,0.034-0.223,0.103
		c-0.057,0.069-0.085,0.158-0.085,0.269c0,0.106,0.028,0.194,0.085,0.264C44.241,19.27,44.316,19.305,44.407,19.305z"/>
	<path class="st0" d="M44.739,19.564h-0.664c0.064,0.188,0.096,0.448,0.096,0.78v0.876c0,0.294-0.032,0.532-0.096,0.714h0.664
		c-0.064-0.176-0.096-0.414-0.096-0.714v-0.908C44.643,20.001,44.675,19.752,44.739,19.564z"/>
	<path class="st0" d="M46.727,20.608c0-0.37-0.079-0.644-0.238-0.823c-0.157-0.18-0.355-0.271-0.592-0.271
		c-0.285,0-0.521,0.117-0.708,0.349c-0.186,0.232-0.28,0.533-0.28,0.904c0,0.39,0.106,0.691,0.319,0.902
		c0.214,0.21,0.485,0.314,0.812,0.314c0.144,0,0.294-0.024,0.45-0.072l0.177-0.448c-0.202,0.096-0.381,0.144-0.537,0.144
		c-0.211,0-0.38-0.072-0.507-0.216c-0.127-0.146-0.202-0.339-0.227-0.581h1.323C46.725,20.753,46.727,20.686,46.727,20.608z
		 M45.412,20.497c0-0.178,0.043-0.328,0.129-0.45c0.086-0.122,0.198-0.183,0.336-0.183c0.135,0,0.245,0.055,0.328,0.166
		c0.083,0.111,0.125,0.266,0.125,0.467H45.412z"/>
	<path class="st0" d="M38.204,25.44l-0.145,0.145l-0.013-0.013l-5.958,5.958c-0.745-0.991-1.98-2.4-3.727-3.651
		c-0.165-0.118-0.338-0.236-0.517-0.354c-0.161-0.125-0.327-0.249-0.498-0.371c-2.802-2.005-7.488-3.932-13.905-1.73
		c-4.976,1.708-7.596,1.592-8.976,0.99c-0.75-0.864-0.661-1.983-0.619-2.285l8.28-6.104l0.129-0.096L12.2,17.78
		c-0.014-0.039-1.262-3.931,7.096-8.699l0.057-0.033l0.029-0.059c0.049-0.098,1.046-2.116,1.371-5.368
		c0.537,1.149,1.058,2.576,1.166,3.954l0.433-0.034C22.217,5.8,21.472,4.02,20.821,2.76c0.003-0.059,0.007-0.118,0.01-0.178
		c0.648,1.081,1.926,3.468,2.103,5.717l0.433-0.034c-0.245-3.131-2.458-6.386-2.552-6.523l-0.387-0.564l-0.01,0.683
		c-0.001,0.051-0.002,0.101-0.004,0.152c-0.333-0.583-0.584-0.952-0.614-0.996l-0.387-0.564l-0.01,0.683
		c-0.055,3.83-1.204,6.459-1.397,6.875c-7.799,4.469-7.462,8.211-7.275,9.029l-8.297,6.117L2.418,23.24
		c-0.016,0.074-0.365,1.83,0.975,3.013c0.235,0.207,0.505,0.381,0.809,0.524c0.064,0.068,0.131,0.135,0.205,0.2
		c1.668,1.472,5.096,1.333,10.189-0.416c4.793-1.646,9.161-1.2,12.993,1.319c2.276,1.77,3.576,3.778,3.885,4.289l-0.135,0.135
		l1.332,1.332l6.864-6.864L38.204,25.44z M2.831,23.407l8.28-6.104l0.129-0.096l-0.053-0.152c-0.014-0.039-1.262-3.931,7.096-8.699
		l0.057-0.033l0.029-0.059c0.054-0.108,1.26-2.55,1.449-6.408c0.158,0.264,0.354,0.607,0.562,1.005
		c-0.214,3.283-1.182,5.496-1.358,5.874c-7.799,4.469-7.462,8.211-7.275,9.029l-8.297,6.117l-0.017,0.081
		c-0.011,0.053-0.192,0.962,0.192,1.908C2.687,24.991,2.786,23.731,2.831,23.407z M14.455,26.15
		c-4.879,1.675-7.492,1.595-8.893,1.024c1.892,0.291,4.574-0.155,8.02-1.338c3.498-1.201,6.769-1.288,9.771-0.269
		C20.913,24.978,17.94,24.954,14.455,26.15z"/>
</g>
</svg>
