<?xml version="1.0" encoding="utf-8"?>
<!-- Generator: Adobe Illustrator 24.1.1, SVG Export Plug-In . SVG Version: 6.00 Build 0)  -->
<svg version="1.0" id="Layer_1" xmlns="http://www.w3.org/2000/svg" xmlns:xlink="http://www.w3.org/1999/xlink" x="0px" y="0px"
	 viewBox="0 0 49 49" style="enable-background:new 0 0 49 49;" xml:space="preserve">
<style type="text/css">
	.st0{fill:#FFFFFF;stroke:#000000;stroke-width:0.7;stroke-miterlimit:10;}
	.st1{fill:#FFFFFF;stroke:#000000;stroke-miterlimit:10;}
	.st2{font-family:'HeadlineR-HM';}
	.st3{font-size:7.098px;}
	.st4{fill:none;stroke:#000000;stroke-miterlimit:10;}
</style>
<path class="st0" d="M16.5,32.5"/>
<path class="st1" d="M45.5,38.5h-42c-1.105,0-2-0.895-2-2l2-12h42l2,12C47.5,37.605,46.605,38.5,45.5,38.5z"/>
<path class="st0" d="M16.5,16.5"/>
<path class="st1" d="M5.5,9.5h38c1.105,0,2,0.895,2,2v13h-42v-13C3.5,10.395,4.395,9.5,5.5,9.5z"/>
<line class="st1" x1="14" y1="28.5" x2="35" y2="28.5"/>
<line class="st1" x1="11" y1="31.5" x2="38" y2="31.5"/>
<line class="st1" x1="7" y1="34.5" x2="42" y2="34.5"/>
<path class="st1" d="M15.5,5.5"/>
<text transform="matrix(1.1188 0 0 1 10.0591 19.7661)" class="st2 st3">￦</text>
<line class="st4" x1="24.5" y1="14.5" x2="32.5" y2="14.5"/>
<line class="st1" x1="24.5" y1="17.5" x2="37.5" y2="17.5"/>
<line class="st1" x1="24.5" y1="20.5" x2="35.5" y2="20.5"/>
</svg>
