<?xml version="1.0" encoding="utf-8"?>
<!-- Generator: Adobe Illustrator 24.1.1, SVG Export Plug-In . SVG Version: 6.00 Build 0)  -->
<svg version="1.0" id="Layer_1" xmlns="http://www.w3.org/2000/svg" xmlns:xlink="http://www.w3.org/1999/xlink" x="0px" y="0px"
	 viewBox="0 0 49 49" style="enable-background:new 0 0 49 49;" xml:space="preserve">
<style type="text/css">
	.st0{fill:#FFFFFF;stroke:#000000;stroke-width:0.7;stroke-miterlimit:10;}
	.st1{fill:#FFFFFF;stroke:#000000;stroke-miterlimit:10;}
	.st2{fill:none;stroke:#000000;stroke-miterlimit:10;}
	.st3{fill:none;stroke:#000000;stroke-width:0.7;stroke-miterlimit:10;}
</style>
<path class="st0" d="M22.653,33.149"/>
<path class="st0" d="M23.877,18.611"/>
<path class="st1" d="M24.753,8.212"/>
<path class="st2" d="M28.936,45.219l-14.494-1.22c-1.776-0.149-3.095-1.71-2.945-3.487l2.562-30.438
	c0.149-1.776,1.711-3.095,3.487-2.945l14.494,1.22c1.776,0.149,3.095,1.711,2.945,3.487l-2.562,30.438
	C32.273,44.05,30.712,45.368,28.936,45.219z"/>
<line class="st2" x1="34.8" y1="14.034" x2="13.874" y2="12.273"/>
<line class="st2" x1="32.701" y1="38.967" x2="11.775" y2="37.206"/>
<ellipse transform="matrix(0.0839 -0.9965 0.9965 0.0839 -20.8376 59.577)" class="st3" cx="21.982" cy="41.121" rx="2" ry="1.75"/>
<path class="st2" d="M34.135,4.094c3.302,0.278,5.754,3.18,5.476,6.482"/>
<path class="st2" d="M34.302,2.101c4.403,0.371,7.671,4.24,7.301,8.643"/>
<path class="st2" d="M33.967,6.087c2.201,0.185,3.836,2.12,3.65,4.321"/>
</svg>
