<?xml version="1.0" encoding="utf-8"?>
<!-- Generator: Adobe Illustrator 27.0.0, SVG Export Plug-In . SVG Version: 6.00 Build 0)  -->
<svg version="1.1" id="Layer_1" xmlns="http://www.w3.org/2000/svg" xmlns:xlink="http://www.w3.org/1999/xlink" x="0px" y="0px"
	 viewBox="0 0 141.7 141.7" style="enable-background:new 0 0 141.7 141.7;" xml:space="preserve">
<style type="text/css">
	.st0{fill:none;stroke:#000000;stroke-width:1.8157;stroke-miterlimit:10;}
	.st1{fill:none;stroke:#000000;stroke-width:1.8157;stroke-linecap:round;stroke-linejoin:round;stroke-miterlimit:10;}
	.st2{fill:none;stroke:#000000;stroke-width:1.8157;stroke-linecap:round;stroke-miterlimit:10;}
</style>
<g>
	<path class="st0" d="M70.8,85.5"/>
	<path class="st0" d="M70.8,85.5"/>
	<path class="st1" d="M98.9,85.5c7.2-7.2,11.7-17.1,11.7-28.1c0-21.9-17.8-39.7-39.7-39.7c-21.9,0-39.7,17.8-39.7,39.7
		c0,11,4.5,20.9,11.7,28.1"/>
	<path class="st0" d="M90.7,101.2H51c-2.4,0-4.4-2-4.4-4.4v0c0-2.4,2-4.4,4.4-4.4h39.7c2.4,0,4.4,2,4.4,4.4v0
		C95.1,99.2,93.1,101.2,90.7,101.2z"/>
	<path class="st0" d="M90.7,110H51c-2.4,0-4.4-2-4.4-4.4v0c0-2.4,2-4.4,4.4-4.4h39.7c2.4,0,4.4,2,4.4,4.4v0
		C95.1,108,93.1,110,90.7,110z"/>
	<path class="st0" d="M90.7,118.8H51c-2.4,0-4.4-2-4.4-4.4v0c0-2.4,2-4.4,4.4-4.4h39.7c2.4,0,4.4,2,4.4,4.4v0
		C95.1,116.8,93.1,118.8,90.7,118.8z"/>
	<path class="st0" d="M82.4,120.4c0,2-5.2,3.6-11.6,3.6s-11.6-1.6-11.6-3.6"/>
	<path class="st0" d="M70.8,66.5"/>
	<path class="st2" d="M78.7,61.8c3.6-2.7,7-6.3,7-10.2c0-8.2-8.5-9.4-14.9-2.9c-6-6-14.9-5.3-14.9,2.9s14.9,14.9,14.9,14.9v19"/>
	<path class="st1" d="M87.3,29.6c-4.8-3-10.4-4.7-16.4-4.7s-11.7,1.7-16.4,4.7"/>
</g>
</svg>
